<svg width="19" height="15" viewBox="0 0 19 15" fill="none" xmlns="http://www.w3.org/2000/svg">
<path d="M17.7422 6.79946L11.2308 0.287898C11.0449 0.102025 10.7972 0 10.533 0C10.2686 0 10.021 0.102171 9.83514 0.287898L9.24395 0.879231C9.05823 1.06481 8.95591 1.31269 8.95591 1.57699C8.95591 1.84114 9.05823 2.09737 9.24395 2.28295L13.0426 6.08998H0.974074C0.429941 6.08998 0 6.51596 0 7.06024V7.89623C0 8.44051 0.429941 8.90944 0.974074 8.90944H13.0857L9.2441 12.7377C9.05837 12.9236 8.95605 13.1647 8.95605 13.429C8.95605 13.693 9.05837 13.9377 9.2441 14.1234L9.83529 14.7128C10.0212 14.8987 10.2687 15 10.5332 15C10.7973 15 11.0451 14.8974 11.2309 14.7115L17.7424 8.2001C17.9287 8.01364 18.0311 7.76474 18.0304 7.50015C18.031 7.23468 17.9287 6.98563 17.7422 6.79946Z" fill="white"/>
</svg>
