<svg width="19" height="15" viewBox="0 0 19 15" fill="none" xmlns="http://www.w3.org/2000/svg">
<path d="M1.25779 6.79995L7.7692 0.288386C7.95508 0.102513 8.20281 0.000488281 8.46696 0.000488281C8.7314 0.000488281 8.97899 0.10266 9.16486 0.288386L9.75605 0.87972C9.94177 1.0653 10.0441 1.31318 10.0441 1.57748C10.0441 1.84163 9.94177 2.09786 9.75605 2.28344L5.95738 6.09046H18.0259C18.5701 6.09046 19 6.51645 19 7.06073V7.89671C19 8.44099 18.5701 8.90993 18.0259 8.90993H5.91428L9.7559 12.7382C9.94163 12.9241 10.0439 13.1652 10.0439 13.4295C10.0439 13.6935 9.94163 13.9382 9.7559 14.1239L9.16471 14.7133C8.97884 14.8992 8.73125 15.0005 8.46681 15.0005C8.20266 15.0005 7.95493 14.8979 7.76906 14.712L1.25764 8.20059C1.07133 8.01413 0.968863 7.76523 0.969595 7.50064C0.969009 7.23517 1.07133 6.98611 1.25779 6.79995Z" fill="white"/>
</svg>
