<svg width="1846" height="1846" viewBox="0 0 1846 1846" fill="none" xmlns="http://www.w3.org/2000/svg">
<g clip-path="url(#clip0)">
<path d="M1321.99 392.647C1311.32 381.076 1296.49 374.219 1280.76 373.585C1265.03 372.95 1249.69 378.59 1238.12 389.263L1121.78 496.579C1071.61 542.751 1005.16 567.136 937.032 564.387C868.899 561.638 804.638 531.979 758.343 481.915L651.027 365.575C640.354 354.004 625.522 347.148 609.793 346.513C594.064 345.878 578.727 351.518 567.157 362.191C555.586 372.864 548.729 387.697 548.094 403.426C547.46 419.155 553.099 434.491 563.773 446.062L671.088 562.402C738.744 635.582 832.666 678.937 932.248 682.955C1031.83 686.973 1128.94 651.326 1202.27 583.834L1318.61 476.518C1330.18 465.845 1337.04 451.012 1337.67 435.283C1338.31 419.554 1332.67 404.218 1321.99 392.647V392.647Z" fill="#002C3F"/>
<path d="M738.282 285.088L845.598 401.428C870.532 428.376 905.132 444.339 941.816 445.819C978.499 447.3 1014.27 434.176 1041.3 409.324L1157.64 302.008C1169.21 291.335 1176.06 276.502 1176.7 260.773C1177.33 245.045 1171.69 229.708 1161.02 218.137C1150.35 206.566 1135.52 199.71 1119.79 199.075C1104.06 198.44 1088.72 204.08 1077.15 214.753L960.81 322.069C956.953 325.627 951.841 327.507 946.598 327.295C941.355 327.084 936.411 324.798 932.853 320.941L825.537 204.601C814.864 193.031 800.031 186.174 784.303 185.539C768.574 184.904 753.237 190.544 741.666 201.217C730.096 211.891 723.239 226.723 722.604 242.452C721.969 258.181 727.609 273.518 738.282 285.088V285.088Z" fill="#002C3F"/>
<path d="M1455.9 1238.12L1348.58 1121.78C1302.41 1071.61 1278.02 1005.16 1280.77 937.032C1283.52 868.899 1313.18 804.638 1363.24 758.343L1479.58 651.028C1491.16 640.354 1498.01 625.522 1498.65 609.793C1499.28 594.064 1493.64 578.727 1482.97 567.157C1472.3 555.586 1457.46 548.729 1441.73 548.094C1426.01 547.46 1410.67 553.1 1399.1 563.773L1282.76 671.089C1209.58 738.745 1166.22 832.666 1162.2 932.248C1158.19 1031.83 1193.83 1128.94 1261.33 1202.27L1368.64 1318.61C1379.32 1330.18 1394.15 1337.04 1409.88 1337.67C1425.61 1338.31 1440.94 1332.67 1452.51 1321.99C1464.08 1311.32 1470.94 1296.49 1471.57 1280.76C1472.21 1265.03 1466.57 1249.69 1455.9 1238.12Z" fill="#002C3F"/>
<path d="M1435.84 1041.3L1543.15 1157.64C1553.83 1169.21 1568.66 1176.06 1584.39 1176.7C1600.12 1177.33 1615.45 1171.69 1627.02 1161.02C1638.59 1150.35 1645.45 1135.52 1646.09 1119.79C1646.72 1104.06 1641.08 1088.72 1630.41 1077.15L1523.09 960.81C1519.53 956.954 1517.65 951.841 1517.86 946.598C1518.08 941.355 1520.36 936.411 1524.22 932.853L1640.56 825.538C1652.13 814.864 1658.99 800.032 1659.62 784.303C1660.26 768.574 1654.62 753.237 1643.94 741.667C1633.27 730.096 1618.44 723.239 1602.71 722.604C1586.98 721.97 1571.64 727.609 1560.07 738.283L1443.73 845.599C1416.78 870.532 1400.82 905.133 1399.34 941.816C1397.86 978.5 1410.98 1014.27 1435.84 1041.3V1041.3Z" fill="#002C3F"/>
<path d="M583.834 642.889L476.518 526.549C465.845 514.978 451.012 508.122 435.283 507.487C419.554 506.852 404.218 512.492 392.647 523.165C381.076 533.838 374.219 548.671 373.585 564.4C372.95 580.129 378.59 595.465 389.263 607.036L496.579 723.376C542.751 773.554 567.136 839.995 564.387 908.128C561.638 976.261 531.979 1040.52 481.915 1086.82L365.575 1194.13C354.005 1204.81 347.148 1219.64 346.513 1235.37C345.878 1251.1 351.518 1266.43 362.191 1278C372.865 1289.57 387.697 1296.43 403.426 1297.07C419.155 1297.7 434.492 1292.06 446.062 1281.39L562.402 1174.07C635.582 1106.42 678.937 1012.49 682.955 912.912C686.973 813.33 651.326 716.221 583.834 642.889V642.889Z" fill="#002C3F"/>
<path d="M409.324 803.863L302.008 687.523C291.335 675.952 276.502 669.095 260.774 668.461C245.045 667.826 229.708 673.466 218.137 684.139C206.567 694.812 199.71 709.645 199.075 725.374C198.44 741.103 204.08 756.439 214.753 768.01L322.069 884.35C325.627 888.207 327.507 893.319 327.295 898.562C327.084 903.805 324.798 908.749 320.941 912.307L204.601 1019.62C193.031 1030.3 186.174 1045.13 185.539 1060.86C184.905 1076.59 190.544 1091.92 201.218 1103.49C211.891 1115.06 226.723 1121.92 242.452 1122.56C258.181 1123.19 273.518 1117.55 285.088 1106.88L401.428 999.562C428.376 974.628 444.339 940.028 445.82 903.344C447.3 866.661 434.176 830.886 409.324 803.863Z" fill="#002C3F"/>
<path d="M1281.39 1399.1L1174.07 1282.76C1106.42 1209.58 1012.49 1166.22 912.912 1162.21C813.33 1158.19 716.221 1193.83 642.889 1261.33L526.549 1368.64C514.978 1379.32 508.122 1394.15 507.487 1409.88C506.852 1425.61 512.492 1440.94 523.165 1452.51C533.838 1464.08 548.671 1470.94 564.4 1471.58C580.129 1472.21 595.465 1466.57 607.036 1455.9L723.376 1348.58C773.554 1302.41 839.995 1278.02 908.128 1280.77C976.261 1283.52 1040.52 1313.18 1086.82 1363.25L1194.13 1479.58C1204.81 1491.16 1219.64 1498.01 1235.37 1498.65C1251.1 1499.28 1266.43 1493.64 1278 1482.97C1289.57 1472.3 1296.43 1457.46 1297.07 1441.73C1297.7 1426.01 1292.06 1410.67 1281.39 1399.1Z" fill="#002C3F"/>
<path d="M1106.88 1560.07L999.562 1443.73C974.628 1416.78 940.028 1400.82 903.344 1399.34C866.661 1397.86 830.887 1410.98 803.863 1435.84L687.523 1543.15C675.952 1553.83 669.096 1568.66 668.461 1584.39C667.826 1600.12 673.466 1615.45 684.139 1627.02C694.812 1638.59 709.645 1645.45 725.374 1646.09C741.103 1646.72 756.439 1641.08 768.01 1630.41L884.35 1523.09C888.207 1519.53 893.319 1517.65 898.562 1517.86C903.805 1518.08 908.749 1520.36 912.307 1524.22L1019.62 1640.56C1030.3 1652.13 1045.13 1658.99 1060.86 1659.62C1076.59 1660.26 1091.92 1654.62 1103.49 1643.94C1115.06 1633.27 1121.92 1618.44 1122.56 1602.71C1123.19 1586.98 1117.55 1571.64 1106.88 1560.07Z" fill="#002C3F"/>
</g>
<defs>
<clipPath id="clip0">
<rect width="1305.79" height="1305.79" fill="white" transform="translate(959.803) rotate(47.3105)"/>
</clipPath>
</defs>
</svg>
