<svg width="29" height="29" viewBox="0 0 29 29" fill="none" xmlns="http://www.w3.org/2000/svg">
<g clip-path="url(#clip0_2962_47173)">
<path d="M26.2732 6.48203L25.6329 4.56267C25.3891 3.83165 24.7074 3.34047 23.937 3.34047H18.5555V1.58837C18.5555 0.712654 17.8435 0 16.968 0H12.0398C11.1646 0 10.4523 0.712654 10.4523 1.58837V3.34047H5.07105C4.30042 3.34047 3.61874 3.83165 3.37492 4.56267L2.73462 6.48203C2.58881 6.91901 2.66271 7.40289 2.93198 7.77658C3.20124 8.15028 3.63689 8.37352 4.09753 8.37352H4.76682L6.23992 26.5895C6.34944 27.9411 7.49641 29 8.85159 29H20.4552C21.8101 29 22.9573 27.9411 23.0666 26.5892L24.5397 8.37352H24.9103C25.371 8.37352 25.8066 8.15028 26.0759 7.7768C26.3451 7.40311 26.419 6.91901 26.2732 6.48203ZM12.1516 1.69922H16.8563V3.34047H12.1516V1.69922ZM21.3729 26.4523C21.3344 26.9282 20.9313 27.3008 20.4552 27.3008H8.85159C8.37545 27.3008 7.97233 26.9282 7.93383 26.4523L6.47157 8.37352H22.835L21.3729 26.4523ZM4.46194 6.6743L4.98697 5.10031C4.99892 5.06403 5.03277 5.03969 5.07105 5.03969H23.937C23.9753 5.03969 24.0089 5.06403 24.0211 5.10031L24.5461 6.6743H4.46194Z" fill="#A2A2A2"/>
<path d="M18.6638 26.3917C18.6789 26.3926 18.6937 26.3928 18.7087 26.3928C19.1577 26.3928 19.5329 26.041 19.5563 25.5874L20.3542 10.2719C20.3785 9.8033 20.0183 9.40349 19.5499 9.37915C19.0802 9.35415 18.6817 9.71479 18.6572 10.1834L17.8596 25.4989C17.8352 25.9676 18.1952 26.3674 18.6638 26.3917Z" fill="#A2A2A2"/>
<path d="M9.49102 25.5903C9.5158 26.0432 9.8906 26.3936 10.3386 26.3936C10.3541 26.3936 10.3701 26.3932 10.3858 26.3923C10.8542 26.3669 11.2132 25.9664 11.1878 25.4978L10.3521 10.1822C10.3267 9.71363 9.92622 9.35454 9.45761 9.3802C8.98922 9.40564 8.63013 9.80611 8.65557 10.2747L9.49102 25.5903Z" fill="#A2A2A2"/>
<path d="M14.5146 26.3937C14.9839 26.3937 15.3643 26.0133 15.3643 25.5441V10.2285C15.3643 9.75924 14.9839 9.37891 14.5146 9.37891C14.0454 9.37891 13.665 9.75924 13.665 10.2285V25.5441C13.665 26.0133 14.0454 26.3937 14.5146 26.3937Z" fill="#A2A2A2"/>
</g>
<defs>
<clipPath id="clip0_2962_47173">
<rect width="29" height="29" fill="white"/>
</clipPath>
</defs>
</svg>
