<svg width="21" height="22" viewBox="0 0 21 22" fill="none" xmlns="http://www.w3.org/2000/svg">
<g clip-path="url(#clip0_2876_47195)">
<path d="M17.9134 3.12902C13.8226 -1.0404 7.16408 -1.0404 3.07321 3.12902C1.09158 5.14949 0 7.83523 0 10.6916C0 13.5479 1.09158 16.2337 3.07321 18.2534C5.11906 20.3385 7.8062 21.3806 10.4933 21.3806C13.1804 21.3806 15.8676 20.3385 17.9134 18.2534C22.0043 14.0839 22.0043 7.29923 17.9134 3.12902ZM16.7641 17.082C13.3064 20.606 7.68019 20.606 4.2225 17.082C2.54814 15.3754 1.6256 13.1056 1.6256 10.6916C1.6256 8.27758 2.54814 6.00772 4.2225 4.30037C7.68019 0.77629 13.3064 0.777125 16.7641 4.30037C20.221 7.82445 20.221 13.5587 16.7641 17.082Z" fill="#656973"/>
<path d="M13.9959 12.9823L11.6948 10.6404L13.9959 8.29852C14.3129 7.97546 14.3129 7.45108 13.9967 7.12713C13.6789 6.8024 13.1644 6.80323 12.8466 7.1263L10.5439 9.46987L8.24125 7.1263C7.92345 6.80323 7.40895 6.8024 7.09115 7.12713C6.77417 7.45103 6.77417 7.97542 7.09197 8.29852L9.39304 10.6404L7.09197 12.9823C6.77417 13.3054 6.77417 13.8298 7.09115 14.1537C7.24966 14.3161 7.45853 14.3964 7.66663 14.3964C7.87473 14.3964 8.08278 14.3152 8.24129 14.1545L10.544 11.8109L12.8466 14.1545C13.0051 14.3161 13.2132 14.3964 13.4213 14.3964C13.6294 14.3964 13.8383 14.3152 13.9968 14.1537C14.3137 13.8298 14.3137 13.3054 13.9959 12.9823Z" fill="#656973"/>
</g>
<defs>
<clipPath id="clip0_2876_47195">
<rect width="20.9816" height="21.3844" fill="white"/>
</clipPath>
</defs>
</svg>
