<svg width="84" height="84" viewBox="0 0 84 84" fill="none" xmlns="http://www.w3.org/2000/svg">
<path d="M53.8563 61.2858L50.6886 59.2145C50.8278 58.758 50.9511 58.2972 51.0585 57.8319L54.8379 57.6221C55.9794 57.5586 57.0533 57.0605 57.839 56.2299C58.6247 55.3993 59.0625 54.2994 59.0625 53.1561C59.0625 52.0128 58.6247 50.9129 57.839 50.0824C57.0533 49.2518 55.9794 48.7536 54.8379 48.6902L51.0585 48.4804C50.9513 48.0158 50.828 47.555 50.6886 47.0978L53.8561 45.0265C54.8132 44.4009 55.4943 43.4325 55.7596 42.3203C56.0248 41.2081 55.8541 40.0366 55.2824 39.0464C54.7107 38.0562 53.7815 37.3225 52.6857 36.9961C51.5899 36.6697 50.4107 36.7754 49.3903 37.2915L46.0075 39.0018C45.6827 38.654 45.3462 38.3175 44.9981 37.9923L46.7086 34.6095C47.2249 33.5892 47.3307 32.4099 47.0044 31.3139C46.6781 30.2179 45.9444 29.2885 44.9541 28.7168C43.9638 28.145 42.7921 27.9743 41.6798 28.2396C40.5675 28.505 39.599 29.1863 38.9735 30.1436L36.9021 33.3111C36.4456 33.172 35.9848 33.0487 35.5195 32.9413L35.3097 29.1622C35.2462 28.0206 34.7481 26.9467 33.9175 26.161C33.0869 25.3753 31.987 24.9375 30.8437 24.9375C29.7004 24.9375 28.6005 25.3753 27.77 26.161C26.9394 26.9467 26.4412 28.0206 26.3778 29.1622L26.168 32.9413C25.7033 33.0484 25.2425 33.1717 24.7854 33.3111L22.7143 30.1434C22.0888 29.186 21.1203 28.5046 20.0079 28.2391C18.8955 27.9737 17.7237 28.1444 16.7333 28.7162C15.7429 29.2881 15.0092 30.2175 14.6829 31.3136C14.3566 32.4097 14.4625 33.5891 14.9789 34.6095L16.6892 37.9923C16.3416 38.3172 16.0052 38.6537 15.6798 39.0018L12.2971 37.2913C11.2767 36.776 10.0978 36.6707 9.0022 36.9972C7.90665 37.3236 6.97758 38.057 6.40564 39.0468L8.67889 40.3593C8.91508 39.9503 9.2989 39.6472 9.75153 39.5124C10.2042 39.3775 10.6912 39.4211 11.1128 39.6341L15.3974 41.7997C15.661 41.933 15.9618 41.9734 16.2512 41.9145C16.5406 41.8556 16.8017 41.7009 16.9923 41.4752C17.6539 40.6921 18.3801 39.9659 19.1633 39.3043C19.389 39.1138 19.5438 38.8527 19.6028 38.5632C19.6617 38.2738 19.6212 37.9729 19.488 37.7093L17.3224 33.4247C17.1092 33.0031 17.0655 32.516 17.2004 32.0633C17.3352 31.6106 17.6383 31.2267 18.0474 30.9905C18.4565 30.7543 18.9405 30.6837 19.3999 30.7933C19.8594 30.9029 20.2595 31.1842 20.518 31.5796L23.143 35.5932C23.3047 35.8406 23.5452 36.0262 23.8255 36.1199C24.1058 36.2136 24.4095 36.21 24.6875 36.1095C25.6517 35.7613 26.6439 35.4958 27.6532 35.3161C27.9444 35.2644 28.2097 35.1158 28.4059 34.8944C28.602 34.673 28.7177 34.3918 28.7341 34.0965L29.0002 29.3072C29.0261 28.8354 29.2318 28.3915 29.5749 28.0668C29.9181 27.742 30.3726 27.561 30.845 27.561C31.3175 27.561 31.772 27.742 32.1152 28.0668C32.4583 28.3915 32.664 28.8354 32.6899 29.3072L32.956 34.0963C32.9724 34.3917 33.0881 34.6728 33.2842 34.8942C33.4804 35.1156 33.7456 35.2642 34.0369 35.316C35.0462 35.4956 36.0384 35.761 37.0026 36.1094C37.2806 36.2098 37.5843 36.2134 37.8646 36.1197C38.1449 36.026 38.3854 35.8405 38.5471 35.5931L41.1721 31.5795C41.4308 31.1845 41.8308 30.9034 42.2901 30.7941C42.7494 30.6847 43.2331 30.7554 43.642 30.9914C44.0509 31.2275 44.3539 31.6112 44.4888 32.0636C44.6238 32.5161 44.5804 33.003 44.3676 33.4245L42.2019 37.7092C42.0687 37.9728 42.0282 38.2736 42.0872 38.5631C42.1461 38.8525 42.3009 39.1136 42.5266 39.3042C43.3098 39.9657 44.036 40.6919 44.6977 41.475C44.8882 41.7007 45.1493 41.8555 45.4387 41.9144C45.7281 41.9732 46.0289 41.9328 46.2925 41.7996L50.5772 39.6339C50.9987 39.421 51.4857 39.3775 51.9383 39.5124C52.3908 39.6474 52.7746 39.9504 53.0107 40.3594C53.2468 40.7684 53.3173 41.2522 53.2079 41.7116C53.0984 42.171 52.8172 42.571 52.4221 42.8295L48.4084 45.4545C48.1611 45.6163 47.9755 45.8568 47.8819 46.1371C47.7882 46.4174 47.7919 46.7211 47.8923 46.999C48.2406 47.9632 48.506 48.9552 48.6857 49.9645C48.7374 50.2557 48.886 50.5209 49.1073 50.7172C49.3287 50.9134 49.6098 51.0291 49.9052 51.0455L54.6946 51.3114C55.1664 51.3374 55.6104 51.5431 55.9352 51.8862C56.26 52.2294 56.441 52.684 56.441 53.1565C56.441 53.629 56.26 54.0835 55.9352 54.4267C55.6104 54.7699 55.1664 54.9756 54.6946 55.0015L49.9052 55.2675C49.6098 55.2839 49.3287 55.3996 49.1073 55.5958C48.886 55.792 48.7374 56.0572 48.6857 56.3485C48.506 57.3577 48.2406 58.3498 47.8923 59.3139C47.7919 59.5918 47.7882 59.8956 47.8819 60.1759C47.9755 60.4562 48.1611 60.6966 48.4084 60.8584L52.4221 63.4834C52.8166 63.7424 53.0971 64.1425 53.2062 64.6016C53.3152 65.0608 53.2445 65.5443 53.0086 65.953C52.7941 66.3285 52.4533 66.6156 52.0468 66.7631L52.9531 69.2267C53.7309 68.9403 54.4139 68.4434 54.9257 67.7914C55.4376 67.1395 55.7582 66.3581 55.8518 65.5345C55.9454 64.7109 55.8083 63.8776 55.4557 63.1274C55.1032 62.3772 54.5492 61.7397 53.8555 61.2861L53.8563 61.2858Z" fill="#656973"/>
<path d="M44.6952 64.8366C44.0338 65.6194 43.3079 66.3453 42.525 67.0067C42.2993 67.1972 42.1444 67.4583 42.0855 67.7478C42.0266 68.0372 42.067 68.3381 42.2003 68.6017L44.3659 72.8863C44.5789 73.3079 44.6223 73.7949 44.4874 74.2474C44.3525 74.7 44.0495 75.0837 43.6405 75.3198C43.2315 75.5559 42.7477 75.6265 42.2883 75.5171C41.8289 75.4076 41.4289 75.1264 41.1703 74.7312L38.5453 70.7176C38.3836 70.4702 38.1431 70.2847 37.8627 70.191C37.5824 70.0973 37.2786 70.101 37.0007 70.2015C36.0365 70.5498 35.0444 70.8152 34.0351 70.9949C33.7438 71.0466 33.4786 71.1952 33.2824 71.4166C33.0863 71.638 32.9706 71.9192 32.9542 72.2145L32.6881 77.0038C32.6622 77.4756 32.4565 77.9195 32.1134 78.2442C31.7702 78.569 31.3157 78.75 30.8432 78.75C30.3708 78.75 29.9163 78.569 29.5731 78.2442C29.23 77.9195 29.0243 77.4756 28.9984 77.0038L28.7323 72.2143C28.7159 71.919 28.6002 71.6378 28.404 71.4164C28.2078 71.195 27.9425 71.0464 27.6512 70.9947C26.642 70.8152 25.6499 70.5498 24.6858 70.2015C24.4078 70.101 24.1041 70.0973 23.8238 70.191C23.5434 70.2847 23.3029 70.4702 23.1412 70.7176L20.5162 74.7312C20.2578 75.1268 19.8578 75.4084 19.3982 75.5182C18.9386 75.6279 18.4545 75.5574 18.0453 75.3211C17.6361 75.0849 17.333 74.7009 17.1982 74.248C17.0634 73.7952 17.1073 73.3079 17.3207 72.8863L19.4863 68.6017C19.6196 68.3381 19.66 68.0372 19.6011 67.7478C19.5422 67.4583 19.3874 67.1972 19.1617 67.0067C18.3791 66.3453 17.6534 65.6194 16.9923 64.8366C16.8017 64.611 16.5406 64.4562 16.2512 64.3973C15.9618 64.3384 15.661 64.3789 15.3974 64.5121L11.1128 66.6777C10.6911 66.8914 10.2037 66.9354 9.75059 66.8007C9.29752 66.666 8.91331 66.3627 8.677 65.9533C8.44069 65.544 8.37024 65.0596 8.48014 64.5999C8.59005 64.1401 8.87196 63.74 9.26788 63.4818L13.2815 60.8568C13.5289 60.6951 13.7144 60.4546 13.8081 60.1743C13.9017 59.894 13.8981 59.5903 13.7976 59.3123C13.4493 58.3482 13.1839 57.3561 13.0042 56.3469C12.9525 56.0556 12.8039 55.7904 12.5826 55.5942C12.3612 55.398 12.0801 55.2823 11.7848 55.2659L6.99528 54.9999C6.52349 54.974 6.07956 54.7683 5.75475 54.4251C5.42994 54.0819 5.24893 53.6274 5.24893 53.1549C5.24893 52.6824 5.42994 52.2278 5.75475 51.8846C6.07956 51.5415 6.52349 51.3358 6.99528 51.3098L11.7848 51.0439C12.0801 51.0275 12.3612 50.9118 12.5826 50.7156C12.8039 50.5193 12.9525 50.2541 13.0042 49.9629C13.1839 48.9538 13.4494 47.9619 13.7976 46.9979C13.8981 46.72 13.9017 46.4163 13.8081 46.136C13.7144 45.8557 13.5289 45.6152 13.2815 45.4534L9.26771 42.8284C8.86935 42.5686 8.58711 42.1646 8.48021 41.7012L5.92264 42.2967C6.18175 43.419 6.86571 44.3971 7.83085 45.0257L10.9986 47.097C10.8592 47.5534 10.7359 48.0143 10.6286 48.4796L6.84959 48.6894C5.70805 48.7529 4.63413 49.251 3.84844 50.0816C3.06275 50.9122 2.62494 52.0121 2.62494 53.1554C2.62494 54.2987 3.06275 55.3986 3.84844 56.2291C4.63413 57.0597 5.70805 57.5579 6.84959 57.6213L10.6289 57.8311C10.736 58.2957 10.8593 58.7565 10.9989 59.2137L7.83134 61.285C6.87391 61.9104 6.19241 62.8788 5.92693 63.9912C5.66144 65.1036 5.83214 66.2754 6.40393 67.2658C6.97572 68.2562 7.90517 68.99 9.00125 69.3163C10.0973 69.6426 11.2768 69.5366 12.2971 69.0202L15.6799 67.3099C16.0048 67.6577 16.3413 67.9942 16.6894 68.3193L14.9789 71.702C14.4629 72.7223 14.3572 73.9015 14.6836 74.9973C15.0099 76.0931 15.7436 77.0224 16.7338 77.594C17.724 78.1657 18.8956 78.3365 20.0078 78.0712C21.12 77.806 22.0884 77.1248 22.7139 76.1678L24.7851 73.0002C25.2415 73.1394 25.7023 73.2628 26.1676 73.3702L26.3775 77.1493C26.4409 78.2909 26.9391 79.3648 27.7696 80.1505C28.6002 80.9362 29.7001 81.374 30.8434 81.374C31.9867 81.374 33.0866 80.9362 33.9172 80.1505C34.7477 79.3648 35.2459 78.2909 35.3093 77.1493L35.5192 73.3702C35.9838 73.263 36.4447 73.1397 36.9017 73.0002L38.9729 76.1678C39.5987 77.1244 40.567 77.8051 41.679 78.0701C42.791 78.3351 43.9623 78.1643 44.9523 77.5928C45.9423 77.0212 46.6759 76.0923 47.0024 74.9968C47.3289 73.9012 47.2236 72.7223 46.7081 71.702L44.9977 68.3192C45.3453 67.9944 45.6818 67.6579 46.0072 67.3097L49.3903 69.0202L50.5747 66.6776L46.2901 64.5119C46.0265 64.3787 45.7256 64.3383 45.4362 64.3972C45.1468 64.4561 44.8857 64.611 44.6952 64.8366Z" fill="#656973"/>
<path d="M30.8437 59.3184C29.7008 59.3145 28.5798 59.6309 27.6075 60.2317C26.6353 60.8325 25.8509 61.6937 25.3432 62.7176L25.1854 63.0333L27.5333 64.2073L27.6911 63.8918C27.9838 63.3063 28.4338 62.8139 28.9906 62.4698C29.5475 62.1256 30.1891 61.9433 30.8437 61.9433C31.4983 61.9433 32.14 62.1256 32.6968 62.4698C33.2536 62.8139 33.7036 63.3063 33.9963 63.8918L34.1542 64.2073L36.5021 63.0333L36.3442 62.7176C35.8365 61.6937 35.0521 60.8325 34.0799 60.2317C33.1077 59.6309 31.9866 59.3145 30.8437 59.3184Z" fill="#656973"/>
<path d="M26.7967 41.7062C28.0966 41.2474 29.4653 41.0138 30.8438 41.0156V38.3906C29.1673 38.3887 27.5027 38.673 25.9219 39.2311L26.7967 41.7062Z" fill="#656973"/>
<path d="M24.1008 43.059L22.6406 40.877C20.4963 42.3128 18.7636 44.2831 17.6136 46.5934L19.9643 47.7617C20.9106 45.861 22.3364 44.2401 24.1008 43.059Z" fill="#656973"/>
<path d="M21.8749 58.9526C22.6478 58.9534 23.4065 58.7457 24.0713 58.3516C24.7361 57.9575 25.2823 57.3914 25.6525 56.713C26.0226 56.0346 26.203 55.269 26.1747 54.4966C26.1464 53.7243 25.9104 52.9739 25.4915 52.3245C25.3879 52.1637 25.2504 52.0276 25.0886 51.9256C24.9269 51.8236 24.7448 51.7581 24.5551 51.7338C23.4489 51.6177 22.3769 51.2831 21.4011 50.7495C21.2272 50.6486 21.0325 50.5891 20.8319 50.5753C20.6314 50.5616 20.4304 50.5941 20.2443 50.6702C19.3219 51.0479 18.5592 51.7342 18.0867 52.6118C17.6142 53.4895 17.4611 54.504 17.6537 55.482C17.8462 56.4599 18.3724 57.3407 19.1423 57.9737C19.9123 58.6068 20.8782 58.9528 21.8749 58.9526ZM20.7778 53.3822C21.6441 53.7787 22.5579 54.062 23.4965 54.225C23.5335 54.3638 23.5522 54.5069 23.5521 54.6505C23.5522 54.9315 23.4817 55.208 23.347 55.4546C23.2124 55.7012 23.0179 55.91 22.7815 56.0619C22.5451 56.2138 22.2744 56.3038 21.9941 56.3238C21.7139 56.3437 21.4331 56.293 21.1776 56.1762C20.922 56.0593 20.6999 55.8802 20.5317 55.6552C20.3634 55.4302 20.2544 55.1665 20.2146 54.8883C20.1748 54.6102 20.2056 54.3265 20.304 54.0634C20.4024 53.8002 20.5653 53.566 20.7778 53.3822Z" fill="#656973"/>
<path d="M39.8125 58.9526C40.8093 58.9528 41.7752 58.6068 42.5451 57.9737C43.315 57.3407 43.8412 56.4599 44.0338 55.482C44.2263 54.504 44.0733 53.4895 43.6007 52.6118C43.1282 51.7342 42.3656 51.0479 41.4431 50.6702C41.2571 50.5941 41.0561 50.5616 40.8555 50.5753C40.655 50.5891 40.4602 50.6486 40.2863 50.7495C39.3105 51.2831 38.2385 51.6177 37.1324 51.7338C36.9427 51.7581 36.7606 51.8236 36.5988 51.9256C36.4371 52.0276 36.2995 52.1637 36.1959 52.3245C35.777 52.9739 35.541 53.7243 35.5127 54.4966C35.4844 55.269 35.6648 56.0346 36.035 56.713C36.4052 57.3914 36.9514 57.9575 37.6162 58.3516C38.2809 58.7457 39.0397 58.9534 39.8125 58.9526ZM38.1909 54.225C39.1296 54.062 40.0433 53.7787 40.9096 53.3822C41.1365 53.5778 41.3069 53.8306 41.4031 54.1144C41.4994 54.3981 41.5179 54.7024 41.4568 54.9957C41.3956 55.289 41.2571 55.5606 41.0556 55.7823C40.854 56.004 40.5968 56.1677 40.3106 56.2564C40.0245 56.3452 39.7198 56.3556 39.4282 56.2868C39.1366 56.218 38.8687 56.0724 38.6524 55.8651C38.4361 55.6578 38.2792 55.3963 38.1981 55.1079C38.1169 54.8195 38.1144 54.5146 38.1909 54.225Z" fill="#656973"/>
<path d="M45.8372 26.4337L49.3111 26.6821C49.4666 27.1219 49.6454 27.5532 49.8469 27.9739L48.6734 29.3281L50.6571 31.0471L52.4161 29.0175C52.5941 28.8121 52.7039 28.5564 52.7304 28.2859C52.7568 28.0153 52.6986 27.7432 52.5638 27.5072C52.1296 26.7467 51.7927 25.9347 51.5612 25.0902C51.4895 24.8281 51.3382 24.5947 51.1282 24.4223C50.9182 24.2499 50.6599 24.1469 50.3888 24.1275L46.0238 23.8158C45.6436 23.7888 45.2878 23.6188 45.028 23.3399C44.7682 23.061 44.6238 22.6941 44.6238 22.313C44.6238 21.9318 44.7682 21.5649 45.028 21.286C45.2878 21.0071 45.6436 20.8371 46.0238 20.8101L50.3887 20.4984C50.6597 20.479 50.918 20.376 51.128 20.2036C51.338 20.0312 51.4893 19.7978 51.5611 19.5357C51.7926 18.6912 52.1294 17.8791 52.5636 17.1187C52.6985 16.8827 52.7567 16.6106 52.7302 16.34C52.7038 16.0695 52.594 15.8138 52.416 15.6084L49.5493 12.2999C49.3001 12.0119 49.1691 11.6402 49.1828 11.2596C49.1965 10.879 49.3538 10.5177 49.6231 10.2484C49.8924 9.97909 50.2537 9.82174 50.6343 9.80802C51.0149 9.7943 51.3866 9.92523 51.6746 10.1745L54.9826 13.0413C55.188 13.2191 55.4434 13.3287 55.7138 13.3552C55.9841 13.3816 56.256 13.3235 56.4919 13.1889C57.2524 12.7546 58.0645 12.4178 58.9091 12.1865C59.1712 12.1148 59.4046 11.9635 59.5771 11.7535C59.7495 11.5435 59.8526 11.2852 59.872 11.0141L60.1837 6.64908C60.2106 6.26887 60.3807 5.913 60.6596 5.65318C60.9385 5.39336 61.3055 5.2489 61.6867 5.2489C62.0678 5.2489 62.4348 5.39336 62.7137 5.65318C62.9926 5.913 63.1627 6.26887 63.1896 6.64908L63.5014 11.0143C63.5207 11.2853 63.6238 11.5437 63.7962 11.7537C63.9687 11.9637 64.2021 12.115 64.4642 12.1867C65.3088 12.418 66.121 12.7548 66.8814 13.1891C67.1173 13.3239 67.3892 13.3821 67.6596 13.3556C67.93 13.3292 68.1854 13.2194 68.3907 13.0414L71.6987 10.1746C71.9864 9.92298 72.3588 9.79003 72.7408 9.80268C73.1227 9.81533 73.4856 9.97264 73.7559 10.2428C74.0262 10.5129 74.1838 10.8756 74.1968 11.2576C74.2097 11.6395 74.0771 12.0121 73.8256 12.2999L70.9588 15.6077C70.7808 15.8132 70.671 16.0688 70.6446 16.3394C70.6181 16.6099 70.6763 16.882 70.8112 17.1181C71.2455 17.8785 71.5823 18.6905 71.8137 19.535C71.8855 19.7971 72.0368 20.0305 72.2468 20.2029C72.4568 20.3754 72.7151 20.4784 72.9861 20.4978L77.3512 20.8095C77.7314 20.8364 78.0872 21.0065 78.347 21.2853C78.6068 21.5642 78.7512 21.9312 78.7512 22.3123C78.7512 22.6934 78.6068 23.0604 78.347 23.3392C78.0872 23.6181 77.7314 23.7881 77.3512 23.8151L72.9863 24.1268C72.7153 24.1462 72.4569 24.2492 72.2469 24.4216C72.0369 24.5941 71.8856 24.8275 71.8139 25.0895C71.5825 25.9341 71.2456 26.7461 70.8113 27.5065C70.6765 27.7426 70.6183 28.0146 70.6447 28.2852C70.6712 28.5557 70.781 28.8114 70.959 29.0169L73.8258 32.3247C74.0755 32.6126 74.2068 32.9844 74.1932 33.3652C74.1797 33.7461 74.0224 34.1076 73.7529 34.3771C73.4835 34.6465 73.1219 34.8039 72.7411 34.8174C72.3602 34.8309 71.9884 34.6996 71.7005 34.45L68.3926 31.5833C68.1872 31.4055 67.9317 31.2959 67.6613 31.2694C67.391 31.243 67.1191 31.301 66.8832 31.4356C66.1228 31.87 65.3107 32.2068 64.466 32.4381C64.2039 32.5098 63.9705 32.6611 63.798 32.871C63.6256 33.081 63.5225 33.3394 63.5032 33.6105L63.1914 37.9755C63.1645 38.3557 62.9944 38.7116 62.7155 38.9714C62.4366 39.2312 62.0696 39.3757 61.6885 39.3757C61.3073 39.3757 60.9403 39.2312 60.6614 38.9714C60.3825 38.7116 60.2124 38.3557 60.1855 37.9755L59.8738 33.6103C59.8544 33.3392 59.7514 33.0809 59.5789 32.8709C59.4064 32.6609 59.173 32.5096 58.9109 32.4379C58.0663 32.2066 57.2542 31.8698 56.4938 31.4355C56.2577 31.3007 55.9856 31.2424 55.7151 31.2689C55.4445 31.2953 55.1889 31.4051 54.9834 31.5831L52.9528 33.343L54.6722 35.3266L56.0262 34.1532C56.447 34.3547 56.8783 34.5335 57.3182 34.689L57.5662 38.1629C57.6407 39.2051 58.1072 40.1804 58.8719 40.8924C59.6366 41.6044 60.6426 42.0002 61.6875 42.0002C62.7323 42.0002 63.7384 41.6044 64.5031 40.8924C65.2678 40.1804 65.7343 39.2051 65.8087 38.1629L66.0568 34.689C66.4967 34.5335 66.928 34.3547 67.3488 34.1532L69.981 36.4336C70.7705 37.1181 71.7901 37.478 72.8343 37.4409C73.8786 37.4038 74.87 36.9723 75.6088 36.2335C76.3477 35.4946 76.7792 34.5033 76.8164 33.459C76.8536 32.4148 76.4938 31.3952 75.8093 30.6057L73.528 27.9733C73.7296 27.5525 73.9084 27.1213 74.0639 26.6814L77.5376 26.4331C78.5797 26.3586 79.555 25.8921 80.267 25.1274C80.9789 24.3628 81.3748 23.3568 81.3748 22.312C81.3748 21.2672 80.9789 20.2611 80.267 19.4965C79.555 18.7318 78.5797 18.2653 77.5376 18.1909L74.0637 17.9425C73.9083 17.5026 73.7294 17.0714 73.5279 16.6507L75.8093 14.0183C76.4936 13.2287 76.8533 12.2092 76.8161 11.165C76.7788 10.1208 76.3474 9.12954 75.6085 8.39073C74.8697 7.65192 73.8785 7.22045 72.8343 7.1832C71.7901 7.14594 70.7706 7.50567 69.981 8.18995L67.3488 10.4721C66.928 10.2706 66.4967 10.0917 66.0568 9.93624L65.8087 6.46238C65.7343 5.42018 65.2678 4.44489 64.5031 3.73288C63.7384 3.02086 62.7323 2.625 61.6875 2.625C60.6426 2.625 59.6366 3.02086 58.8719 3.73288C58.1072 4.44489 57.6407 5.42018 57.5662 6.46238L57.3182 9.93624C56.8783 10.0917 56.447 10.2706 56.0262 10.4721L53.3938 8.19061C52.6042 7.50659 51.5847 7.14707 50.5407 7.18444C49.4967 7.22181 48.5056 7.65328 47.7669 8.392C47.0282 9.13072 46.5967 10.1219 46.5594 11.1659C46.522 12.2099 46.8816 13.2293 47.5656 14.0189L49.8469 16.6513C49.6454 17.0721 49.4666 17.5033 49.3111 17.9431L45.8374 18.1915C44.7952 18.266 43.82 18.7325 43.108 19.4971C42.396 20.2618 42.0002 21.2678 42.0002 22.3126C42.0002 23.3574 42.396 24.3634 43.108 25.1281C43.82 25.8928 44.7952 26.3593 45.8374 26.4337H45.8372Z" fill="#656973"/>
<path d="M58.0627 26.6961L57.9703 26.8346L60.1547 28.2904L60.2469 28.1521C60.4362 27.868 60.9678 27.5625 61.6875 27.5625C62.4072 27.5625 62.9388 27.868 63.128 28.1518L63.2203 28.2904L65.4047 26.8346L65.3121 26.6958C64.5889 25.6111 63.2 24.9375 61.6875 24.9375C60.175 24.9375 58.7861 25.6111 58.0627 26.6961Z" fill="#656973"/>
<path d="M55.3875 17.5876L57.4864 19.1642C57.9732 18.5094 58.607 17.9782 59.3367 17.6131C60.0664 17.2481 60.8716 17.0595 61.6875 17.0626V14.4376C60.4641 14.4328 59.2567 14.7154 58.1625 15.2625C57.0682 15.8096 56.1177 16.606 55.3875 17.5876Z" fill="#656973"/>
<path d="M53.8433 22.6323C53.7925 22.9151 53.8046 23.2057 53.8786 23.4833C53.9527 23.761 54.087 24.019 54.2719 24.2389C54.4569 24.4589 54.688 24.6354 54.9488 24.7561C55.2097 24.8767 55.4939 24.9384 55.7813 24.9368C56.1628 24.9314 56.5347 24.8167 56.8531 24.6063C57.1715 24.396 57.4229 24.0988 57.5776 23.75C57.8302 23.1922 57.75 22.5507 57.75 21.9535V20.9993C55.7568 20.9993 54.7667 20.095 54.7255 20.0566L54.7406 20.0712L52.8844 21.9274C53.1745 22.2001 53.4965 22.4368 53.8433 22.6323Z" fill="#656973"/>
<path d="M68.6344 20.0723C68.6252 20.0815 67.6172 21.0004 65.625 21.0004V22.9504C65.6214 23.2199 65.6717 23.4874 65.7729 23.7372C65.8741 23.987 66.0241 24.2141 66.2141 24.4052C66.3968 24.5816 66.613 24.7197 66.85 24.8112C67.087 24.9027 67.3399 24.9458 67.5937 24.9379C67.8811 24.9394 68.1653 24.8777 68.4262 24.7571C68.687 24.6365 68.9181 24.4599 69.1031 24.24C69.288 24.02 69.4223 23.762 69.4964 23.4844C69.5704 23.2067 69.5825 22.9161 69.5316 22.6333C69.8785 22.4376 70.2005 22.2007 70.4906 21.9278L68.6344 20.0723Z" fill="#656973"/>
<path d="M16.6287 13.1151V13.1351C15.7993 13.6912 15.2121 14.5417 14.986 15.5144C14.76 16.4871 14.912 17.5093 15.4113 18.3742C15.9106 19.239 16.7198 19.8819 17.6752 20.1726C18.6305 20.4633 19.6607 20.3801 20.557 19.9399L20.5743 19.9499C20.6388 20.9482 21.0808 21.8844 21.8106 22.5685C22.5404 23.2527 23.5032 23.6334 24.5036 23.6334C25.5039 23.6334 26.4667 23.2527 27.1965 22.5685C27.9263 21.8844 28.3683 20.9482 28.4329 19.9499L28.4493 19.9401C29.3458 20.3814 30.3765 20.4654 31.3326 20.175C32.2887 19.8846 33.0986 19.2416 33.5983 18.3762C34.0979 17.5109 34.2498 16.4879 34.0233 15.5147C33.7967 14.5415 33.2087 13.6908 32.3782 13.1351V13.1151C33.2087 12.5593 33.7967 11.7087 34.0233 10.7355C34.2498 9.76224 34.0979 8.7393 33.5983 7.87394C33.0986 7.00859 32.2887 6.36556 31.3326 6.07517C30.3765 5.78479 29.3458 5.86877 28.4493 6.31009L28.4329 6.30025C28.3668 5.3032 27.9241 4.36857 27.1946 3.68576C26.4651 3.00295 25.5032 2.62305 24.504 2.62305C23.5047 2.62305 22.5429 3.00295 21.8133 3.68576C21.0838 4.36857 20.6411 5.3032 20.5751 6.30025L20.5577 6.31026C19.8123 5.94413 18.9703 5.82274 18.1519 5.96343L18.5985 8.5502C18.9006 8.49687 19.2118 8.55245 19.4768 8.70705L19.9516 8.98119C20.173 9.10899 20.4268 9.1694 20.6819 9.155C20.9371 9.1406 21.1825 9.05203 21.388 8.90015C21.7038 8.667 22.0447 8.47004 22.4044 8.31297C22.6384 8.21083 22.8376 8.04264 22.9774 7.829C23.1173 7.61537 23.1918 7.36558 23.1919 7.11023V6.56258C23.1919 6.21449 23.3302 5.88065 23.5763 5.63451C23.8224 5.38837 24.1563 5.25008 24.5044 5.25008C24.8525 5.25008 25.1863 5.38837 25.4325 5.63451C25.6786 5.88065 25.8169 6.21449 25.8169 6.56258V7.11023C25.8169 7.36558 25.8914 7.61537 26.0313 7.829C26.1712 8.04264 26.3703 8.21083 26.6044 8.31297C26.9644 8.47 27.3056 8.66696 27.6216 8.90015C27.827 9.05218 28.0724 9.14093 28.3275 9.1555C28.5827 9.17008 28.8365 9.10984 29.0579 8.98218L29.5313 8.70721C29.8326 8.53591 30.1894 8.49073 30.5239 8.58154C30.8583 8.67235 31.1433 8.89177 31.3166 9.19192C31.4899 9.49208 31.5375 9.84859 31.4489 10.1837C31.3603 10.5187 31.1428 10.8052 30.8438 10.9805L30.368 11.2548C30.147 11.3823 29.968 11.5715 29.8528 11.7992C29.7377 12.0269 29.6914 12.2832 29.7196 12.5368C29.7647 12.9277 29.7647 13.3225 29.7196 13.7134C29.6914 13.967 29.7377 14.2233 29.8528 14.451C29.968 14.6787 30.147 14.8679 30.368 14.9954L30.8438 15.2695C31.1452 15.4436 31.3652 15.7303 31.4553 16.0665C31.5454 16.4028 31.4983 16.761 31.3242 17.0625C31.1502 17.364 30.8635 17.584 30.5272 17.6741C30.191 17.7642 29.8327 17.717 29.5313 17.543L29.0565 17.2688C28.8351 17.141 28.5813 17.0807 28.3262 17.0951C28.071 17.1095 27.8256 17.1981 27.6201 17.35C27.3041 17.5832 26.9629 17.7802 26.6029 17.9372C26.3689 18.0393 26.1697 18.2075 26.0298 18.4212C25.89 18.6348 25.8154 18.8846 25.8154 19.1399V19.6876C25.8154 20.0357 25.6771 20.3695 25.431 20.6157C25.1848 20.8618 24.851 21.0001 24.5029 21.0001C24.1548 21.0001 23.821 20.8618 23.5748 20.6157C23.3287 20.3695 23.1904 20.0357 23.1904 19.6876V19.1399C23.1904 18.8846 23.1158 18.6348 22.976 18.4212C22.8361 18.2075 22.6369 18.0393 22.4029 17.9372C22.0432 17.7801 21.7023 17.5832 21.3865 17.35C21.1811 17.198 20.9356 17.1094 20.6805 17.095C20.4253 17.0806 20.1714 17.1411 19.9502 17.269L19.4755 17.543C19.3262 17.6305 19.161 17.6876 18.9895 17.7111C18.8181 17.7345 18.6436 17.7238 18.4763 17.6796C18.3089 17.6353 18.152 17.5584 18.0145 17.4533C17.877 17.3482 17.7616 17.2169 17.6751 17.067C17.5885 16.9171 17.5325 16.7515 17.5102 16.5799C17.4879 16.4082 17.4997 16.2338 17.5451 16.0668C17.5904 15.8998 17.6684 15.7433 17.7744 15.6065C17.8805 15.4697 18.0126 15.3553 18.163 15.2697L18.6388 14.9954C18.8598 14.8678 19.0388 14.6786 19.1539 14.451C19.269 14.2233 19.3153 13.967 19.287 13.7134C19.242 13.3225 19.242 12.9277 19.287 12.5368C19.3153 12.2832 19.269 12.0269 19.1539 11.7992C19.0388 11.5715 18.8598 11.3823 18.6388 11.2548L18.163 10.9806C17.8621 10.8061 17.6426 10.5193 17.5528 10.1832C17.4629 9.84705 17.5101 9.48902 17.6838 9.18759L15.4106 7.87508C14.9123 8.74041 14.761 9.76255 14.9871 10.7351C15.2132 11.7077 15.7999 12.5583 16.6287 13.1151Z" fill="#656973"/>
<path d="M24.2822 11.9869L22.9677 9.71484C22.0636 10.2375 21.404 11.0977 21.1339 12.1065C20.8639 13.1153 21.0055 14.19 21.5276 15.0945L23.7997 13.78C23.6841 13.581 23.6238 13.3548 23.625 13.1247C23.6255 12.8942 23.6865 12.6678 23.8018 12.4682C23.9171 12.2685 24.0828 12.1026 24.2822 11.9869Z" fill="#656973"/>
<path d="M79.6287 52.5103V52.4901C80.4591 51.9343 81.0472 51.0837 81.2738 50.1104C81.5003 49.1372 81.3484 48.1143 80.8488 47.2489C80.3491 46.3836 79.5392 45.7406 78.5831 45.4502C77.627 45.1598 76.5962 45.2438 75.6997 45.6851L75.6833 45.6752C75.6173 44.6782 75.1746 43.7436 74.4451 43.0608C73.7155 42.3779 72.7537 41.998 71.7545 41.998C70.7552 41.998 69.7934 42.3779 69.0638 43.0608C68.3343 43.7436 67.8916 44.6782 67.8256 45.6752L67.8083 45.6853C66.9119 45.2442 65.8813 45.1605 64.9254 45.4509C63.9696 45.7414 63.1598 46.3843 62.6603 47.2495C62.1607 48.1147 62.0087 49.1374 62.2351 50.1105C62.4615 51.0836 63.0492 51.9342 63.8794 52.4901V52.5101C63.0506 53.0664 62.464 53.9167 62.2383 54.8891C62.0126 55.8614 62.1646 56.8832 62.6636 57.7477C63.1626 58.6123 63.9713 59.255 64.9262 59.5459C65.881 59.8369 66.9107 59.7543 67.807 59.3149L67.8243 59.3249C67.8903 60.322 68.333 61.2566 69.0625 61.9394C69.7921 62.6222 70.7539 63.0021 71.7531 63.0021C72.7524 63.0021 73.7142 62.6222 74.4438 61.9394C75.1733 61.2566 75.616 60.322 75.682 59.3249L75.6993 59.3149C76.2403 59.581 76.8353 59.7194 77.4383 59.7193C77.4383 59.7193 77.4354 57.0943 77.4339 57.0943C77.2045 57.0945 76.9793 57.0337 76.7812 56.918L76.3064 56.6438C76.085 56.5162 75.8312 56.4559 75.576 56.4705C75.3209 56.4851 75.0755 56.5738 74.8701 56.7258C74.5543 56.959 74.2134 57.1559 73.8537 57.313C73.6197 57.4152 73.4205 57.5834 73.2806 57.797C73.1408 58.0106 73.0662 58.2604 73.0662 58.5158V59.0626C73.0662 59.4107 72.9279 59.7445 72.6818 59.9907C72.4356 60.2368 72.1018 60.3751 71.7537 60.3751C71.4056 60.3751 71.0718 60.2368 70.8256 59.9907C70.5795 59.7445 70.4412 59.4107 70.4412 59.0626V58.5149C70.4412 58.2596 70.3667 58.0098 70.2268 57.7962C70.0869 57.5825 69.8877 57.4143 69.6537 57.3122C69.2937 57.1552 68.9525 56.9582 68.6365 56.725C68.431 56.573 68.1856 56.4844 67.9304 56.47C67.6753 56.4556 67.4214 56.5161 67.2002 56.644L66.7255 56.918C66.5762 57.0055 66.411 57.0626 66.2395 57.0861C66.068 57.1095 65.8936 57.0988 65.7263 57.0546C65.5589 57.0104 65.402 56.9334 65.2645 56.8283C65.127 56.7232 65.0116 56.5919 64.9251 56.442C64.8385 56.2921 64.7825 56.1265 64.7602 55.9549C64.7379 55.7832 64.7497 55.6088 64.7951 55.4418C64.8404 55.2748 64.9184 55.1183 65.0244 54.9815C65.1305 54.8447 65.2626 54.7303 65.413 54.6447L65.8888 54.3704C66.7972 53.8454 66.4425 52.7578 66.5369 51.9118C66.5651 51.6582 66.5188 51.4019 66.4037 51.1742C66.2886 50.9465 66.1096 50.7573 65.8886 50.6298L65.4137 50.3556C65.1122 50.1816 64.8922 49.8949 64.8021 49.5586C64.7119 49.2224 64.7591 48.8641 64.9331 48.5626C65.1072 48.2611 65.3939 48.0411 65.7301 47.951C66.0664 47.8608 66.4247 47.908 66.7262 48.082L67.201 48.3562C67.4223 48.484 67.6761 48.5444 67.9313 48.53C68.1864 48.5156 68.4318 48.427 68.6373 48.2751C69.3359 47.7588 70.4407 47.5488 70.4407 46.4852V45.9376C70.4407 45.5895 70.579 45.2556 70.8251 45.0095C71.0713 44.7634 71.4051 44.6251 71.7532 44.6251C72.1013 44.6251 72.4352 44.7634 72.6813 45.0095C72.9274 45.2556 73.0657 45.5895 73.0657 45.9376V46.4852C73.0657 47.1891 73.6577 47.6337 74.2155 47.9454C74.8378 48.2937 75.6007 48.7944 76.3055 48.3555L76.7812 48.0822C77.0825 47.9109 77.4394 47.8657 77.7738 47.9565C78.1083 48.0473 78.3933 48.2668 78.5666 48.5669C78.7399 48.8671 78.7874 49.2236 78.6989 49.5587C78.6103 49.8937 78.3927 50.1802 78.0937 50.3555L77.618 50.6298C76.7263 51.1444 77.0634 52.2464 76.9696 53.0884C76.9414 53.342 76.9877 53.5983 77.1028 53.826C77.218 54.0537 77.397 54.2429 77.618 54.3704L78.0937 54.6445C78.3419 54.7884 78.5362 55.0093 78.6473 55.2737C78.7583 55.5382 78.7799 55.8316 78.7088 56.1095L81.2501 56.7657C81.4522 55.9758 81.4049 55.1427 81.1145 54.3808C80.8242 53.6188 80.3052 52.9654 79.6287 52.5103Z" fill="#656973"/>
<path d="M71.5323 51.3619L70.2178 49.0898C69.3137 49.6125 68.6541 50.4727 68.384 51.4815C68.1139 52.4903 68.2555 53.565 68.7776 54.4695L71.0498 53.155C70.9342 52.956 70.8739 52.7298 70.875 52.4997C70.8756 52.2692 70.9366 52.0428 71.0519 51.8432C71.1672 51.6435 71.3328 51.4776 71.5323 51.3619Z" fill="#656973"/>
<path d="M72.0727 71.1366C72.1886 70.7084 72.2182 70.2615 72.1598 69.8219C72.1013 69.3822 71.956 68.9585 71.7322 68.5756C71.3316 67.89 70.7035 67.3664 69.9571 67.0955C69.2107 66.8247 68.393 66.8238 67.6459 67.0929C67.5036 66.3126 67.0921 65.6069 66.483 65.0989C65.8739 64.5908 65.1059 64.3125 64.3127 64.3125C63.5195 64.3125 62.7514 64.5908 62.1423 65.0989C61.5332 65.6069 61.1217 66.3126 60.9794 67.0929C60.2324 66.8234 59.4146 66.8242 58.6681 67.095C57.9216 67.3658 57.2936 67.8896 56.8931 68.5754C56.4956 69.2608 56.3522 70.0644 56.4883 70.845C56.6244 71.6256 57.0311 72.3333 57.6371 72.8438C57.0311 73.3543 56.6244 74.0619 56.4883 74.8425C56.3522 75.6231 56.4954 76.4266 56.8929 77.1121C57.2935 77.7977 57.9216 78.3213 58.668 78.5922C59.4145 78.863 60.2322 78.8639 60.9792 78.5947C61.1215 79.375 61.5331 80.0807 62.1422 80.5888C62.7513 81.0968 63.5193 81.3751 64.3125 81.3751C65.1057 81.3751 65.8737 81.0968 66.4828 80.5888C67.0919 80.0807 67.5035 79.375 67.6458 78.5947C68.3928 78.864 69.2105 78.8632 69.957 78.5924C70.7035 78.3216 71.3315 77.7979 71.7321 77.1122C72.1296 76.4268 72.2729 75.6232 72.1368 74.8426C72.0007 74.062 71.5939 73.3543 70.9879 72.8438C71.5169 72.4002 71.8957 71.8039 72.0727 71.1366ZM68.1585 72.4136C68.1917 72.6995 68.1917 72.9882 68.1585 73.274C68.13 73.5282 68.1764 73.7852 68.292 74.0134C68.4076 74.2416 68.5874 74.431 68.8093 74.5584L69.1847 74.774C69.2707 74.8229 69.3462 74.8885 69.4067 74.9668C69.4672 75.0452 69.5115 75.1348 69.5371 75.2304C69.5626 75.3247 69.569 75.4231 69.5562 75.5199C69.5433 75.6167 69.5112 75.71 69.4619 75.7943C69.3594 75.9685 69.1922 76.0951 68.9968 76.1467C68.8014 76.1983 68.5935 76.1707 68.4183 76.0699L68.0433 75.8547C67.8227 75.728 67.57 75.6682 67.3159 75.6825C67.0619 75.6968 66.8175 75.7846 66.6125 75.9352C66.3793 76.1064 66.1278 76.2509 65.8626 76.3662C65.6281 76.4682 65.4285 76.6364 65.2883 76.8502C65.1481 77.064 65.0734 77.3141 65.0734 77.5698V78.0001C65.0734 78.2019 64.9933 78.3954 64.8506 78.5381C64.7079 78.6807 64.5144 78.7609 64.3127 78.7609C64.1109 78.7609 63.9174 78.6807 63.7747 78.5381C63.6321 78.3954 63.5519 78.2019 63.5519 78.0001V77.5698C63.5519 77.3141 63.4772 77.064 63.337 76.8502C63.1968 76.6364 62.9972 76.4682 62.7628 76.3662C62.4975 76.2509 62.246 76.1064 62.0128 75.9352C61.8078 75.7846 61.5634 75.6968 61.3094 75.6825C61.0554 75.6682 60.8027 75.728 60.582 75.8547L60.2068 76.0699C60.0317 76.1708 59.8238 76.1984 59.6284 76.1468C59.433 76.0952 59.2659 75.9685 59.1634 75.7943C59.1141 75.71 59.0821 75.6167 59.0692 75.5199C59.0563 75.4231 59.0628 75.3247 59.0883 75.2304C59.1138 75.1348 59.1581 75.0452 59.2186 74.9668C59.2791 74.8884 59.3546 74.8229 59.4407 74.774L59.816 74.5584C60.0379 74.431 60.2177 74.2416 60.3333 74.0134C60.449 73.7852 60.4954 73.5282 60.4669 73.274C60.4336 72.9882 60.4336 72.6995 60.4669 72.4136C60.4954 72.1594 60.449 71.9024 60.3333 71.6742C60.2177 71.446 60.0379 71.2566 59.816 71.1292L59.4408 70.9136C59.3547 70.8647 59.2792 70.7992 59.2186 70.7209C59.1581 70.6425 59.1138 70.5529 59.0883 70.4572C59.0628 70.3629 59.0563 70.2645 59.0692 70.1677C59.0821 70.0709 59.1141 69.9776 59.1634 69.8933C59.266 69.7192 59.4331 69.5925 59.6285 69.5409C59.8239 69.4893 60.0318 69.5169 60.207 69.6177L60.582 69.8329C60.8026 69.9597 61.0554 70.0197 61.3094 70.0054C61.5635 69.991 61.8079 69.9032 62.0128 69.7524C62.2458 69.5813 62.4972 69.4368 62.7623 69.3217C62.9969 69.2198 63.1966 69.0516 63.3369 68.8377C63.4772 68.6238 63.5519 68.3736 63.5519 68.1178V67.6875C63.5519 67.4857 63.6321 67.2922 63.7747 67.1495C63.9174 67.0069 64.1109 66.9267 64.3127 66.9267C64.5144 66.9267 64.7079 67.0069 64.8506 67.1495C64.9933 67.2922 65.0734 67.4857 65.0734 67.6875V68.1178C65.0734 68.3736 65.1482 68.6238 65.2884 68.8377C65.4287 69.0516 65.6284 69.2198 65.8631 69.3217C66.1282 69.4368 66.3795 69.5813 66.6125 69.7524C66.8175 69.903 67.0619 69.9909 67.3159 70.0052C67.57 70.0195 67.8227 69.9596 68.0433 69.8329L68.4185 69.6177C68.5936 69.5167 68.8015 69.489 68.997 69.5406C69.1924 69.5922 69.3596 69.719 69.4619 69.8933C69.5112 69.9776 69.5433 70.0709 69.5562 70.1677C69.569 70.2645 69.5626 70.3629 69.5371 70.4572C69.5116 70.5528 69.4672 70.6425 69.4067 70.7208C69.3462 70.7992 69.2708 70.8647 69.1847 70.9136L68.8093 71.1292C68.5874 71.2565 68.4076 71.446 68.2919 71.6742C68.1763 71.9024 68.1298 72.1594 68.1583 72.4136H68.1585Z" fill="#656973"/>
<path d="M17.6648 25.6626L16.4602 23.3301C13.7126 24.75 11.1791 26.5506 8.93469 28.6785L10.7394 30.5838C12.8049 28.6259 15.1364 26.9691 17.6648 25.6626Z" fill="#656973"/>
<path d="M8.85937 32.5348L6.89062 30.7969C6.16989 31.6136 5.48198 32.4757 4.84607 33.3597L6.97691 34.8927C7.56327 34.0791 8.19574 33.2855 8.85937 32.5348Z" fill="#656973"/>
</svg>
