<svg width="63" height="63" viewBox="0 0 63 63" fill="none" xmlns="http://www.w3.org/2000/svg">
<path d="M10.8281 0.984375V12.7969H3.9375C2.30934 12.7969 0.984375 14.1218 0.984375 15.75V23.625C0.984375 25.2532 2.30934 26.5781 3.9375 26.5781H10.8281V34.2218C9.03066 35.6659 7.875 37.8787 7.875 40.3594C7.875 43.0959 9.2797 45.5086 11.404 46.9202C5.37666 48.7807 0.984375 54.4015 0.984375 61.0312V62.0156H30.5156V61.0312C30.5156 54.4015 26.1233 48.7807 20.096 46.9202C21.6917 45.8601 22.8729 44.2319 23.3661 42.3281H62.0156V0.984375H10.8281ZM60.0469 2.95312V8.85938H12.7969V2.95312H60.0469ZM2.95312 23.625V15.75C2.95312 15.2076 3.39412 14.7656 3.9375 14.7656H19.6875C20.2309 14.7656 20.6719 15.2076 20.6719 15.75V23.625C20.6719 24.1674 20.2309 24.6094 19.6875 24.6094H16.7344V27.6915L12.1108 24.6094H3.9375C3.39412 24.6094 2.95312 24.1674 2.95312 23.625ZM18.078 48.4519L15.75 50.78L13.422 48.4519C14.178 48.3131 14.9546 48.2344 15.75 48.2344C16.5454 48.2344 17.322 48.3131 18.078 48.4519ZM10.2808 49.4767C10.5968 49.326 10.9187 49.1872 11.2485 49.0622L14.3581 52.1719L12.7437 53.7863L10.2808 49.4767ZM15.75 53.5638L17.7443 55.5581L15.75 59.0477L13.7557 55.5581L15.75 53.5638ZM18.7563 53.7863L17.1419 52.1719L20.2515 49.0622C20.5813 49.1863 20.9032 49.326 21.2192 49.4767L18.7563 53.7863ZM8.57292 50.4551L14.0539 60.0469H7.875V56.1094H5.90625V60.0469H2.99053C3.29569 56.0592 5.44261 52.5873 8.57292 50.4551ZM28.5095 60.0469H25.5938V56.1094H23.625V60.0469H17.4461L22.9271 50.4551C26.0574 52.5873 28.2043 56.0592 28.5095 60.0469ZM15.75 46.2656C12.4927 46.2656 9.84375 43.6167 9.84375 40.3594C9.84375 37.1021 12.4927 34.4531 15.75 34.4531C19.0073 34.4531 21.6562 37.1021 21.6562 40.3594C21.6562 43.6167 19.0073 46.2656 15.75 46.2656ZM37.4062 20.6719C37.4062 17.4146 40.0552 14.7656 43.3125 14.7656C46.5698 14.7656 49.2188 17.4146 49.2188 20.6719C49.2188 23.9292 46.5698 26.5781 43.3125 26.5781C40.0552 26.5781 37.4062 23.9292 37.4062 20.6719ZM43.3125 28.5469C44.1069 28.5469 44.8816 28.6296 45.6366 28.7684L43.3125 31.0925L40.9884 28.7684C41.7434 28.6296 42.5181 28.5469 43.3125 28.5469ZM47.8101 29.3787C48.1802 29.5185 48.5405 29.674 48.8929 29.8463L46.9015 34.6825L44.7044 32.4844L47.8101 29.3787ZM38.8149 29.3787L41.9206 32.4844L39.7235 34.6815L37.7321 29.8453C38.0845 29.674 38.4448 29.5185 38.8149 29.3787ZM36.0143 30.8464L39.0265 38.1623L43.3125 33.8763L47.5985 38.1623L50.6107 30.8464C53.675 32.9835 55.758 36.4238 56.0592 40.3594H53.1562V36.4219H51.1875V40.3594H35.4375V36.4219H33.4688V40.3594H30.5658C30.867 36.4238 32.95 32.9835 36.0143 30.8464ZM58.0279 40.3594C57.6165 34.1637 53.3836 28.9997 47.6585 27.2327C49.7828 25.8211 51.1875 23.4084 51.1875 20.6719C51.1875 16.3298 47.6546 12.7969 43.3125 12.7969C38.9704 12.7969 35.4375 16.3298 35.4375 20.6719C35.4375 23.4084 36.8422 25.8211 38.9665 27.2327C33.2414 28.9997 29.0085 34.1637 28.5971 40.3594H23.625C23.625 36.0173 20.0921 32.4844 15.75 32.4844C14.7056 32.4844 13.7094 32.6931 12.7969 33.0642V27.4335L18.7031 31.371V26.5781H19.6875C21.3157 26.5781 22.6406 25.2532 22.6406 23.625V15.75C22.6406 14.1218 21.3157 12.7969 19.6875 12.7969H12.7969V10.8281H60.0469V40.3594H58.0279Z" fill="#74788D"/>
<path d="M14.7656 4.92188H16.7344V6.89062H14.7656V4.92188Z" fill="#74788D"/>
<path d="M18.7031 4.92188H20.6719V6.89062H18.7031V4.92188Z" fill="#74788D"/>
<path d="M22.6406 4.92188H24.6094V6.89062H22.6406V4.92188Z" fill="#74788D"/>
<path d="M4.92188 16.7344H18.7031V18.7031H4.92188V16.7344Z" fill="#74788D"/>
<path d="M4.92188 20.6719H14.7656V22.6406H4.92188V20.6719Z" fill="#74788D"/>
<path d="M16.7344 20.6719H18.7031V22.6406H16.7344V20.6719Z" fill="#74788D"/>
<path d="M36.4219 56.1094H46.2656V58.0781H36.4219V56.1094Z" fill="#74788D"/>
<path d="M48.2344 56.1094H50.2031V58.0781H48.2344V56.1094Z" fill="#74788D"/>
<path d="M36.4219 52.1719H50.2031V54.1406H36.4219V52.1719Z" fill="#74788D"/>
<path d="M51.1875 48.2344H43.6108L36.4219 43.4424V48.2344H35.4375C33.8093 48.2344 32.4844 49.5594 32.4844 51.1875V59.0625C32.4844 60.6907 33.8093 62.0156 35.4375 62.0156H51.1875C52.8157 62.0156 54.1406 60.6907 54.1406 59.0625V51.1875C54.1406 49.5594 52.8157 48.2344 51.1875 48.2344ZM52.1719 59.0625C52.1719 59.6059 51.7309 60.0469 51.1875 60.0469H35.4375C34.8941 60.0469 34.4531 59.6059 34.4531 59.0625V51.1875C34.4531 50.6441 34.8941 50.2031 35.4375 50.2031H38.3906V47.1201L43.0142 50.2031H51.1875C51.7309 50.2031 52.1719 50.6441 52.1719 51.1875V59.0625Z" fill="#74788D"/>
<path d="M56.1094 12.7969H58.0781V14.7656H56.1094V12.7969Z" fill="#74788D"/>
<path d="M56.1094 16.7344H58.0781V18.7031H56.1094V16.7344Z" fill="#74788D"/>
<path d="M56.1094 20.6719H58.0781V22.6406H56.1094V20.6719Z" fill="#74788D"/>
<path d="M24.6094 12.7969H26.5781V14.7656H24.6094V12.7969Z" fill="#74788D"/>
<path d="M28.5469 12.7969H30.5156V14.7656H28.5469V12.7969Z" fill="#74788D"/>
<path d="M32.4844 12.7969H34.4531V14.7656H32.4844V12.7969Z" fill="#74788D"/>
</svg>
