<svg width="65" height="65" viewBox="0 0 65 65" fill="none" xmlns="http://www.w3.org/2000/svg">
<path d="M56.3334 4.87503H8.66671C6.27349 4.87503 4.33337 6.81514 4.33337 9.20836V55.7917C4.34082 57.7616 5.67589 59.4787 7.58337 59.9712V63.375C7.58337 63.9733 8.06844 64.4584 8.66671 64.4584H17.3334C17.9316 64.4584 18.4167 63.9733 18.4167 63.375V60.125H46.5834V63.375C46.5834 63.9733 47.0684 64.4584 47.6667 64.4584H56.3334C56.9316 64.4584 57.4167 63.9733 57.4167 63.375V59.9712C59.3242 59.4787 60.6593 57.7616 60.6667 55.7917V9.20836C60.6667 6.81514 58.7266 4.87503 56.3334 4.87503ZM16.25 62.2917H9.75004V60.125H16.25V62.2917ZM44.4167 57.9584H37.9167V51.4584H44.4167V57.9584ZM46.5834 57.9584V51.4584H53.0834V57.9584H46.5834ZM55.25 62.2917H48.75V60.125H55.25V62.2917ZM58.5 55.7917C58.5 56.9884 57.5301 57.9584 56.3334 57.9584H55.25V50.375C55.25 49.7768 54.765 49.2917 54.1667 49.2917H36.8334C36.2351 49.2917 35.75 49.7768 35.75 50.375V57.9584H8.66671C7.47003 57.9584 6.50004 56.9884 6.50004 55.7917V9.20836C6.50004 8.01169 7.47003 7.0417 8.66671 7.0417H56.3334C57.5301 7.0417 58.5 8.01169 58.5 9.20836V55.7917Z" fill="#74788D"/>
<path d="M54.1667 10.2917H10.8333C10.2351 10.2917 9.75 10.7767 9.75 11.375V46.0417C9.75 46.64 10.2351 47.125 10.8333 47.125H54.1667C54.7649 47.125 55.25 46.64 55.25 46.0417V11.375C55.25 10.7767 54.7649 10.2917 54.1667 10.2917ZM53.0833 44.9584H11.9167V12.4584H53.0833V44.9584Z" fill="#74788D"/>
<path d="M40.0833 34.125C39.6707 34.1227 39.2927 34.3551 39.1083 34.7241L38.0585 36.8333L35.6817 30.4915C35.5226 30.0528 35.096 29.7689 34.6298 29.7917C34.1652 29.8074 33.7624 30.1178 33.6288 30.563L31.5705 37.4162L28.1406 21.9733C28.0221 21.4721 27.5723 21.1199 27.0573 21.125C26.5388 21.1392 26.1033 21.5191 26.0184 22.0307L23.999 34.125H18.4166V36.2917H24.9166C25.4462 36.2914 25.898 35.9085 25.9848 35.386L27.235 27.8861L30.3593 41.9434C30.4663 42.4243 30.8843 42.7723 31.3765 42.7906H31.4166C31.8952 42.7906 32.3171 42.4766 32.4545 42.0182L34.775 34.2648L36.8961 39.923C37.104 40.484 37.7273 40.7703 38.2883 40.5625C38.546 40.467 38.7578 40.2771 38.8808 40.0313L40.7528 36.2917H46.5833V34.125H40.0833Z" fill="#74788D"/>
<path d="M50.9167 34.125H48.75V36.2917H50.9167V34.125Z" fill="#74788D"/>
<path d="M16.25 34.125H14.0834V36.2917H16.25V34.125Z" fill="#74788D"/>
<path d="M24.9167 14.625H14.0834V16.7916H24.9167V14.625Z" fill="#74788D"/>
<path d="M21.6667 18.9583H14.0834V21.125H21.6667V18.9583Z" fill="#74788D"/>
<path d="M49.8333 14.625H47.6666V16.7916H49.8333V14.625Z" fill="#74788D"/>
<path d="M45.5 14.625H43.3334V16.7916H45.5V14.625Z" fill="#74788D"/>
<path d="M41.1667 14.625H39V16.7916H41.1667V14.625Z" fill="#74788D"/>
<path d="M13 49.2916C11.2051 49.2916 9.75 50.7467 9.75 52.5416C9.75 54.3366 11.2051 55.7916 13 55.7916C14.7949 55.7916 16.25 54.3366 16.25 52.5416C16.25 50.7467 14.7949 49.2916 13 49.2916ZM13 53.625C12.4017 53.625 11.9167 53.1399 11.9167 52.5416C11.9167 51.9434 12.4017 51.4583 13 51.4583C13.5983 51.4583 14.0833 51.9434 14.0833 52.5416C14.0833 53.1399 13.5983 53.625 13 53.625Z" fill="#74788D"/>
<path d="M20.5833 51.4583H18.4166V53.625H20.5833V51.4583Z" fill="#74788D"/>
<path d="M24.9167 51.4583H22.75V53.625H24.9167V51.4583Z" fill="#74788D"/>
<path d="M29.25 51.4583H27.0834V53.625H29.25V51.4583Z" fill="#74788D"/>
<path d="M42.25 53.625H40.0834V55.7917H42.25V53.625Z" fill="#74788D"/>
<path d="M50.9167 53.625H48.75V55.7917H50.9167V53.625Z" fill="#74788D"/>
<path d="M7.58333 0.541626C3.3972 0.546366 0.00473958 3.93882 0 8.12496V23.2916H2.16667V8.12496C2.17019 5.13496 4.59333 2.71181 7.58333 2.70829H14.0833V0.541626H7.58333Z" fill="#74788D"/>
<path d="M2.16667 25.4583H0V27.625H2.16667V25.4583Z" fill="#74788D"/>
<path d="M64.9999 33.0416H62.8333V53.625H64.9999V33.0416Z" fill="#74788D"/>
<path d="M64.9999 28.7083H62.8333V30.875H64.9999V28.7083Z" fill="#74788D"/>
</svg>
