<svg width="84" height="84" viewBox="0 0 84 84" fill="none" xmlns="http://www.w3.org/2000/svg">
<path d="M63.3965 32.95L17.3741 78.9726C13.9753 82.3713 8.4443 82.3713 5.04427 78.9725C1.70265 75.6308 1.59519 70.0919 4.8095 66.8774L13.8493 57.8392C14.0802 57.6086 14.2098 57.2939 14.2098 56.9676C14.2098 56.2879 13.6589 55.7379 12.9793 55.7379C12.6305 55.7379 12.3154 55.8835 12.0914 56.1169L3.06945 65.1372C1.05608 67.1506 -0.0337903 69.8905 0.000662848 72.8515C0.03528 75.8254 1.20849 78.6173 3.30423 80.713C5.48412 82.8919 8.34685 83.9814 11.2097 83.9814C14.0726 83.9814 16.9352 82.8917 19.1141 80.7128L65.1368 34.6904C65.6173 34.2097 65.6173 33.4307 65.1368 32.9501C64.6562 32.4698 63.8771 32.4698 63.3965 32.95Z" fill="#656973"/>
<path d="M50.1257 32.1513L43.7944 38.4826C43.3138 38.9633 43.3138 39.7423 43.7944 40.2228C44.0346 40.463 44.3495 40.5831 44.6644 40.5831C44.9792 40.5831 45.2942 40.463 45.5344 40.2228L51.8658 33.8915C52.3463 33.4108 52.3463 32.6318 51.8658 32.1513C51.3852 31.6709 50.6061 31.6709 50.1257 32.1513Z" fill="#656973"/>
<path d="M40.0424 42.2353L38.401 43.8767C37.9205 44.3574 37.9205 45.1364 38.401 45.6169C38.6412 45.8571 38.9562 45.9772 39.271 45.9772C39.5859 45.9772 39.9009 45.8571 40.141 45.6169L41.7825 43.9755C42.263 43.4948 42.263 42.7158 41.7825 42.2353C41.3021 41.7549 40.523 41.7549 40.0424 42.2353Z" fill="#656973"/>
<path d="M83.6395 17.9649L66.0525 0.377859C65.8218 0.147188 65.5088 0.0175781 65.1825 0.0175781C64.8562 0.0175781 64.5431 0.147188 64.3125 0.377859L56.8088 7.88159C56.3282 8.36229 56.3282 9.14126 56.8088 9.6218L57.6971 10.5102L16.202 52.0069C15.96 52.2316 15.8085 52.5527 15.8085 52.9092C15.8085 53.5889 16.3603 54.1397 17.0398 54.1397C17.3661 54.1397 17.6792 54.0101 17.9099 53.7792L59.4367 12.2509L61.6832 14.4974L58.8019 17.3787C58.3214 17.8594 58.3214 18.6383 58.8019 19.1189L60.98 21.297L55.0992 27.1778L52.2175 24.296C51.7369 23.8157 50.9578 23.8157 50.4774 24.296L30.5455 44.2278C30.3146 44.4587 30.185 44.7715 30.185 45.098C30.185 45.4245 30.3146 45.7372 30.5455 45.9682L33.427 48.8498L16.6006 65.6767C15.9285 65.2982 15.1677 65.0956 14.3753 65.0956C13.1609 65.0956 12.019 65.5686 11.1603 66.4273L7.05663 70.531C6.19792 71.3897 5.72493 72.5314 5.72493 73.7461C5.72493 74.9605 6.19792 76.1022 7.05663 76.9611C7.91533 77.82 9.0572 78.2928 10.2716 78.2928C11.486 78.2928 12.6279 77.8198 13.4866 76.9611L17.5901 72.8574C18.4488 71.9987 18.9218 70.857 18.9218 69.6424C18.9218 68.8498 18.7192 68.0889 18.3407 67.4169L35.1673 50.5903L38.0492 53.4723C38.2894 53.7125 38.6044 53.8325 38.9192 53.8325C39.234 53.8325 39.549 53.7125 39.7892 53.4723L59.7212 33.5405C59.952 33.3096 60.0816 32.9968 60.0816 32.6703C60.0816 32.3438 59.952 32.0311 59.7212 31.8001L56.8393 28.9182L62.7201 23.0374L64.8985 25.2158C65.1387 25.456 65.4537 25.5761 65.7685 25.5761C66.0834 25.5761 66.3984 25.456 66.6386 25.2158L69.52 22.3345L71.7662 24.5807L67.4551 28.8916C66.9746 29.3723 66.9746 30.1513 67.4551 30.6318C67.9356 31.1122 68.7148 31.1122 69.1951 30.6318L73.5067 26.3202L74.3953 27.2088C74.6259 27.4395 74.939 27.5691 75.2653 27.5691C75.5916 27.5691 75.9046 27.4395 76.1353 27.2088L83.639 19.7051C84.1201 19.2245 84.1201 18.4456 83.6395 17.9649ZM15.85 71.1172L11.7464 75.2209C11.3524 75.6148 10.8286 75.8318 10.2716 75.8318C9.71444 75.8318 9.19075 75.615 8.79684 75.2209V75.2207C8.40292 74.827 8.18587 74.3031 8.18587 73.7461C8.18587 73.189 8.40276 72.6651 8.79684 72.2714L12.9005 68.1675C13.2944 67.7736 13.8181 67.5565 14.3753 67.5565C14.9321 67.5565 15.4555 67.7733 15.8492 68.1668C15.8496 68.167 15.8497 68.1673 15.8499 68.1677C15.8502 68.168 15.8505 68.1682 15.8507 68.1685C16.2441 68.5622 16.4609 69.0856 16.4609 69.6424C16.461 70.1994 16.2441 70.7233 15.85 71.1172ZM38.9194 50.8619L33.1557 45.0982L51.3474 26.9064L54.2213 29.7803C54.2239 29.7831 54.2262 29.7859 54.2289 29.7887C54.2315 29.7913 54.2344 29.7936 54.2372 29.7962L57.1113 32.6703L38.9194 50.8619ZM69.7551 19.088L64.9295 14.2625L70.6932 8.49879L75.5188 13.3244L69.7551 19.088ZM65.1825 2.98809L68.953 6.75858L63.1893 12.5223L59.4188 8.75177L65.1825 2.98809ZM65.7687 22.6055L61.412 18.2489L63.4233 16.2375L67.7801 20.5941L65.7687 22.6055ZM75.2658 24.5987L71.4953 20.8283L77.259 15.0646L81.0295 18.8351L75.2658 24.5987Z" fill="#656973"/>
</svg>
