<svg width="82" height="82" viewBox="0 0 82 82" fill="none" xmlns="http://www.w3.org/2000/svg">
<path d="M22.625 56.2066L21.9228 55.5044C20.6825 54.2628 20 52.6156 20 50.8634V38.375H17.375V50.8634C17.375 53.3165 18.3305 55.6239 20.0656 57.3603L22.625 59.9184V64.6237L21.0894 63.4713C19.8556 62.5486 18.3988 61.9449 16.8763 61.727L0.498879 59.3881L0.127441 61.9869L16.5061 64.3258C17.5942 64.4806 18.635 64.9111 19.5157 65.5713L22.625 67.9062V81.6875H25.25V0.3125H22.625V56.2066Z" fill="#656973"/>
<path d="M14.75 54.8943L2.55296 42.6973L0.697087 44.5531L11.3677 55.2238L0.443774 54.1318L0.181274 56.7436L14.75 58.2005V54.8943Z" fill="#656973"/>
<path d="M14.75 38.3752H12.125V44.3943L2.55296 34.8223L0.697083 36.6781L14.75 50.7311V38.3752Z" fill="#656973"/>
<path d="M58.0625 44.9375C54.4439 44.9375 51.5 47.8814 51.5 51.5C51.5 55.1186 54.4439 58.0625 58.0625 58.0625C61.6811 58.0625 64.625 55.1186 64.625 51.5C64.625 47.8814 61.6811 44.9375 58.0625 44.9375ZM58.0625 55.4375C55.8916 55.4375 54.125 53.6709 54.125 51.5C54.125 49.3291 55.8916 47.5625 58.0625 47.5625C60.2334 47.5625 62 49.3291 62 51.5C62 53.6709 60.2334 55.4375 58.0625 55.4375Z" fill="#656973"/>
<path d="M73.8125 37.0625C73.8125 39.1966 72.6102 41 71.1875 41C69.7648 41 68.5625 39.1966 68.5625 37.0625C68.5625 34.9284 69.7648 33.125 71.1875 33.125V30.5C68.2921 30.5 65.9375 33.4439 65.9375 37.0625C65.9375 40.6811 68.2921 43.625 71.1875 43.625C74.0829 43.625 76.4375 40.6811 76.4375 37.0625H73.8125Z" fill="#656973"/>
<path d="M71.1875 22.625C67.4009 22.625 64.0869 25.4036 62.2389 29.5471C60.6534 26.0795 57.4443 23.5136 53.5869 22.8206C58.9563 15.6044 66.7303 9.5 68.5625 9.5V6.875C65.0201 6.875 55.7079 15.0519 50.4513 22.6972C49.9158 22.7444 49.3908 22.8271 48.875 22.9452V22.625C48.875 18.8384 51.7481 16.0008 54.5279 13.2577C57.0204 10.7954 59.375 8.471 59.375 5.5625H56.75C56.75 7.37375 54.7747 9.32413 52.6826 11.3887C51.3858 12.6697 50.0169 14.0242 48.875 15.5401V0.3125H46.25V23.8811C45.2984 24.3536 44.4191 24.9521 43.625 25.6647V20C43.625 16.3814 40.6811 13.4375 37.0625 13.4375C33.4439 13.4375 30.5 16.3814 30.5 20V62C30.5 65.6186 33.4439 68.5625 37.0625 68.5625C40.6811 68.5625 43.625 65.6186 43.625 62V57.3774C44.6173 56.7119 45.5006 55.8982 46.25 54.9703V81.6875H48.875V58.9078C51.0419 61.5905 54.3534 63.3125 58.0625 63.3125C64.5751 63.3125 69.875 58.0139 69.875 51.5C69.875 51.4593 69.8697 51.4186 69.8684 51.3779C70.3042 51.4514 70.7439 51.5 71.1875 51.5C76.9769 51.5 81.6875 45.0228 81.6875 37.0625C81.6875 29.1022 76.9769 22.625 71.1875 22.625ZM51.5 25.25C56.5662 25.25 60.6875 29.3713 60.6875 34.4375C60.6875 36.3433 60.0627 38.1886 58.9668 39.7334C58.6676 39.7098 58.3683 39.6875 58.0625 39.6875C56.8222 39.6875 55.6278 39.8818 54.5043 40.2374C56.6069 39.1428 58.0625 36.968 58.0625 34.4375C58.0625 30.8189 55.1186 27.875 51.5 27.875C47.8814 27.875 44.9375 30.8189 44.9375 34.4375C44.9375 38.0561 47.8814 41 51.5 41C52.088 41 52.6484 40.8976 53.1905 40.7506C51.3044 41.609 49.6874 42.9464 48.4865 44.6094C47.5297 40.9554 44.8483 37.9353 41.3255 36.5585C42.7522 34.9402 43.625 32.8218 43.625 30.5V29.7388C45.2827 26.9667 48.2529 25.25 51.5 25.25ZM51.5 38.375C49.3291 38.375 47.5625 36.6084 47.5625 34.4375C47.5625 32.2666 49.3291 30.5 51.5 30.5C53.6709 30.5 55.4375 32.2666 55.4375 34.4375C55.4375 36.6084 53.6709 38.375 51.5 38.375ZM33.125 34.196C33.5371 34.343 33.9755 34.4375 34.4375 34.4375C36.6084 34.4375 38.375 32.6709 38.375 30.5C38.375 28.3291 36.6084 26.5625 34.4375 26.5625C33.9755 26.5625 33.5371 26.657 33.125 26.804V24.0832C33.5555 23.9953 33.9926 23.9375 34.4375 23.9375C38.0561 23.9375 41 26.8814 41 30.5C41 34.1186 38.0561 37.0625 34.4375 37.0625C33.9926 37.0625 33.5555 37.0047 33.125 36.9168V34.196ZM33.125 30.5C33.125 29.7768 33.7143 29.1875 34.4375 29.1875C35.1607 29.1875 35.75 29.7768 35.75 30.5C35.75 31.2232 35.1607 31.8125 34.4375 31.8125C33.7143 31.8125 33.125 31.2232 33.125 30.5ZM37.0625 16.0625C39.2334 16.0625 41 17.8291 41 20V24.0819C39.3305 22.3756 37.0074 21.3125 34.4375 21.3125C33.9952 21.3125 33.5581 21.3611 33.125 21.4227V20C33.125 17.8291 34.8916 16.0625 37.0625 16.0625ZM41 62C41 64.1709 39.2334 65.9375 37.0625 65.9375C34.8916 65.9375 33.125 64.1709 33.125 62V58.6754C34.385 59.1217 35.7119 59.375 37.0625 59.375C38.4446 59.375 39.7662 59.1243 41 58.6859V62ZM37.0625 56.75C35.6922 56.75 34.3496 56.4271 33.125 55.8444V52.7784C34.2249 53.6118 35.5794 54.125 37.0625 54.125C40.6811 54.125 43.625 51.1811 43.625 47.5625C43.625 43.9439 40.6811 41 37.0625 41C35.5794 41 34.2249 41.5132 33.125 42.3466V39.5773C33.5581 39.6389 33.9952 39.6875 34.4375 39.6875C36.0348 39.6875 37.5363 39.2767 38.8462 38.5574C43.0947 39.3961 46.25 43.1866 46.25 47.5625C46.25 52.6274 42.1287 56.75 37.0625 56.75ZM33.125 47.5625C33.125 45.3916 34.8916 43.625 37.0625 43.625C39.2334 43.625 41 45.3916 41 47.5625C41 49.7334 39.2334 51.5 37.0625 51.5C34.8916 51.5 33.125 49.7334 33.125 47.5625ZM58.0625 60.6875C52.9963 60.6875 48.875 56.5649 48.875 51.5C48.875 46.4351 52.9963 42.3125 58.0625 42.3125C63.1287 42.3125 67.25 46.4351 67.25 51.5C67.25 56.5649 63.1287 60.6875 58.0625 60.6875ZM71.1875 48.875C70.6126 48.875 70.0469 48.7503 69.4904 48.5626C68.678 45.4074 66.6029 42.7588 63.827 41.1995C63.4923 39.8765 63.3125 38.4905 63.3125 37.0625C63.3125 30.5499 66.8444 25.25 71.1875 25.25C75.5306 25.25 79.0625 30.5499 79.0625 37.0625C79.0625 43.5764 75.5306 48.875 71.1875 48.875Z" fill="#656973"/>
<path d="M30.5 10.8127H33.125C33.125 7.5787 29.0655 4.77914 28.6035 4.4707L27.1479 6.6547C28.2412 7.38445 30.5 9.35977 30.5 10.8127Z" fill="#656973"/>
<path d="M44.5542 6.48933L42.6957 4.63477C42.3886 4.94189 39.6875 7.73227 39.6875 10.8127H42.3125C42.3125 9.11958 43.9308 7.11802 44.5542 6.48933Z" fill="#656973"/>
<path d="M28.6035 68.7832L27.1479 70.9672C28.2412 71.697 30.5 73.6736 30.5 75.1252H33.125C33.125 71.8912 29.0655 69.0916 28.6035 68.7832Z" fill="#656973"/>
<path d="M37.0625 76.4375L39.6875 76.4519C39.7571 75.6172 41.8505 72.5 43.625 72.5V69.875C40.2348 69.875 37.0625 74.3874 37.0625 76.4375Z" fill="#656973"/>
</svg>
