<svg width="84" height="84" viewBox="0 0 84 84" fill="none" xmlns="http://www.w3.org/2000/svg">
<g clip-path="url(#clip0)">
<path d="M60.9677 37.9355C48.2675 37.9355 37.9355 48.2675 37.9355 60.9678C37.9355 73.6681 48.2675 84.0001 60.9677 84.0001C73.668 84.0001 84 73.6681 84 60.9678C84 48.2675 73.668 37.9355 60.9677 37.9355ZM60.9677 81.2904C49.7619 81.2904 40.6452 72.1737 40.6452 60.9678C40.6452 49.7619 49.7619 40.6452 60.9677 40.6452C72.1736 40.6452 81.2903 49.7619 81.2903 60.9678C81.2903 72.1737 72.1736 81.2904 60.9677 81.2904Z" fill="#656973"/>
<path d="M67.742 62.3218H70.4516V59.6121H67.742V58.2573C67.742 57.6083 67.6214 56.9946 67.4507 56.3998L69.5899 54.2605L67.6742 52.3448L66.1148 53.9042C65.1501 52.7648 63.8387 51.9289 62.3226 51.62V48.7734H59.6129V51.62C58.0969 51.9289 56.7854 52.7648 55.8207 53.9042L54.2613 52.3448L52.3456 54.2605L54.4849 56.3998C54.3141 56.9946 54.1936 57.6083 54.1936 58.2573V59.6121H51.4839V62.3218H54.1936V63.6767C54.1936 64.3256 54.3141 64.9394 54.4849 65.5341L52.3456 67.6734L54.2613 69.5892L55.8207 68.0298C56.7854 69.1692 58.0969 70.0051 59.6129 70.314V73.1605H62.3226V70.314C63.8387 70.0051 65.1501 69.1692 66.1148 68.0298L67.6742 69.5892L69.5899 67.6734L67.4507 65.5341C67.6214 64.9394 67.742 64.3256 67.742 63.6767V62.3218ZM65.0323 63.6767C65.0323 65.9176 63.2087 67.7412 60.9678 67.7412C58.7269 67.7412 56.9032 65.9176 56.9032 63.6767V58.2573C56.9032 56.0164 58.7269 54.1928 60.9678 54.1928C63.2087 54.1928 65.0323 56.0164 65.0323 58.2573V63.6767Z" fill="#656973"/>
<path d="M81.6453 7.54239L76.9359 5.40174C71.9528 3.13645 66.6974 1.82497 61.2794 1.46729L61.297 1.39684C61.068 1.33858 55.6365 0 48.7742 0C42.2114 0 33.3615 1.22206 32.4186 1.35484H28.4516C12.7626 1.35484 0 14.1188 0 29.8065V39.1535C0 43.8819 1.11774 48.6184 3.234 52.8509C4.06587 54.5146 5.73774 55.5484 7.59794 55.5484C9.23323 55.5484 10.7506 54.7355 11.657 53.3752C14.1432 49.6467 18.3039 47.4194 22.787 47.4194H23.0323C32.531 47.4194 40.7021 41.6383 44.2192 33.4103L44.2978 33.4903C44.3398 33.4496 45.3614 32.5161 47.4194 32.5161C49.0601 32.5161 51.6356 33.8818 52.9539 34.6879C54.6 35.8734 56.6119 36.5806 58.7905 36.5806C63.1084 36.5806 66.9263 33.829 68.292 29.7319L70.3812 23.4645C71.8647 19.0152 75.829 15.7649 80.4815 15.185C82.4866 14.933 84 13.2205 84 11.1991C84 9.62613 83.0746 8.19 81.6453 7.54239ZM43.3548 24.3871C43.3548 35.593 34.2381 44.7097 23.0323 44.7097H22.787C17.3961 44.7097 12.3927 47.3882 9.40258 51.8727C8.99884 52.477 8.32548 52.8387 7.59794 52.8387C6.77148 52.8387 6.02768 52.3794 5.65781 51.6397C3.72852 47.7825 2.70968 43.4646 2.70968 39.1535V29.8065C2.70968 15.6118 14.257 4.06452 28.4516 4.06452H39.2903C41.5312 4.06452 43.3548 5.88813 43.3548 8.12903V24.3871ZM80.1455 12.497C74.4633 13.2043 69.6211 17.1739 67.8097 22.6082L65.7205 28.8757C64.7247 31.8645 61.9392 33.871 58.7905 33.871C57.3747 33.871 56.0632 33.4483 54.9428 32.7492L54.9455 32.7437C54.8818 32.7017 54.7382 32.6083 54.5431 32.485C52.6978 31.1586 51.4839 29.0057 51.4839 26.5643V24.3871H48.7742V26.5643C48.7742 27.8162 49.0154 29.0112 49.4367 30.1181C48.7485 29.9284 48.0616 29.8065 47.4194 29.8065C46.6295 29.8065 45.9331 29.904 45.3302 30.053C45.7922 28.2362 46.0645 26.3448 46.0645 24.3871V8.12903C46.0645 6.01955 45.0755 4.15665 43.5594 2.9129C45.3451 2.79097 47.1443 2.70968 48.7742 2.70968C50.3011 2.70968 51.7562 2.78284 53.0975 2.89258C50.4989 4.58613 48.7742 7.51258 48.7742 10.8387V21.6774H51.4839V10.8387C51.4839 7.10342 54.5228 4.06452 58.2581 4.06452C64.3562 4.06452 70.2633 5.34348 75.8141 7.86755L80.5248 10.0095C80.9895 10.2195 81.2903 10.687 81.2903 11.1991C81.2903 11.8562 80.7985 12.4144 80.1455 12.497Z" fill="#656973"/>
<path d="M5.41937 29.8057V34.0599H8.12905V29.8057C8.12905 18.5998 17.2458 9.48312 28.4516 9.48312V6.77344C15.7514 6.77344 5.41937 17.1054 5.41937 29.8057Z" fill="#656973"/>
<path d="M8.12905 36.6758H5.41937V39.1565H8.12905V36.6758Z" fill="#656973"/>
<path d="M37.9355 24.3867C37.9355 32.6038 31.2494 39.2899 23.0323 39.2899H22.787V41.9996H23.0323C32.7438 41.9996 40.6452 34.0982 40.6452 24.3867H37.9355Z" fill="#656973"/>
<path d="M62.6694 20.8945L60.5789 27.162C60.3215 27.9329 59.6034 28.4518 58.7905 28.4518V31.1615C60.7713 31.1615 62.5245 29.8974 63.1504 28.0196L65.2396 21.7521L62.6694 20.8945Z" fill="#656973"/>
<path d="M58.2581 6.77344V9.48312C62.9986 9.48312 67.6213 10.3719 72.0002 12.1278L73.0082 9.61182C68.3069 7.7286 63.3455 6.77344 58.2581 6.77344Z" fill="#656973"/>
<path d="M62.3226 43.3555H59.6129V46.0651H62.3226V43.3555Z" fill="#656973"/>
<path d="M62.3226 75.8711H59.6129V78.5808H62.3226V75.8711Z" fill="#656973"/>
<path d="M78.5807 59.6133H75.871V62.323H78.5807V59.6133Z" fill="#656973"/>
<path d="M46.0645 59.6133H43.3549V62.323H46.0645V59.6133Z" fill="#656973"/>
<path d="M72.4567 47.5547L70.5407 49.4707L72.4567 51.3867L74.3727 49.4707L72.4567 47.5547Z" fill="#656973"/>
<path d="M49.4653 70.543L47.5493 72.459L49.4653 74.375L51.3813 72.459L49.4653 70.543Z" fill="#656973"/>
<path d="M72.4512 70.5547L70.5352 72.4707L72.4512 74.3867L74.3672 72.4707L72.4512 70.5547Z" fill="#656973"/>
<path d="M49.4709 47.5566L47.5549 49.4727L49.4709 51.3887L51.3869 49.4727L49.4709 47.5566Z" fill="#656973"/>
</g>
<defs>
<clipPath id="clip0">
<rect width="84" height="84" fill="white"/>
</clipPath>
</defs>
</svg>
