<svg width="24" height="22" viewBox="0 0 24 22" fill="none" xmlns="http://www.w3.org/2000/svg">
<path d="M22.6143 17.3V11.434C22.6143 10.1786 22.6143 9.55095 22.4409 8.98145C22.2875 8.47728 22.0359 8.00841 21.7006 7.60178C21.322 7.14245 20.799 6.7954 19.753 6.10128L15.6041 3.3482C14.3248 2.4993 13.6852 2.07485 12.9943 1.9099C12.3836 1.76412 11.7472 1.76412 11.1366 1.9099C10.4457 2.07485 9.80603 2.4993 8.52676 3.3482L4.37792 6.10128L4.37792 6.10129C3.33191 6.7954 2.8089 7.14245 2.43023 7.60178C2.09499 8.00841 1.84341 8.47728 1.68995 8.98145C1.5166 9.55095 1.5166 10.1786 1.5166 11.434V17.3C1.5166 18.4201 1.5166 18.9802 1.73459 19.408C1.92634 19.7843 2.2323 20.0903 2.60862 20.282C3.03644 20.5 3.5965 20.5 4.7166 20.5H5.83811C5.95418 20.5 6.01221 20.5 6.06125 20.4976C7.08866 20.4471 7.91023 19.6255 7.9607 18.5981C7.96311 18.5491 7.96311 18.4911 7.96311 18.375V16.1023C7.96311 13.8367 9.79979 12 12.0654 12C14.3311 12 16.1678 13.8367 16.1678 16.1023V18.375C16.1678 18.4911 16.1678 18.5491 16.1702 18.5981C16.2206 19.6255 17.0422 20.4471 18.0696 20.4976C18.1187 20.5 18.1767 20.5 18.2928 20.5H19.4143C20.5344 20.5 21.0944 20.5 21.5223 20.282C21.8986 20.0903 22.2045 19.7843 22.3963 19.408C22.6143 18.9802 22.6143 18.4201 22.6143 17.3Z" stroke="#828282" stroke-width="1.8"/>
</svg>
