<svg width="23" height="23" viewBox="0 0 23 23" fill="none" xmlns="http://www.w3.org/2000/svg">
<g clip-path="url(#clip0)">
<path d="M22.9776 6.76206C22.9237 5.53998 22.7261 4.69982 22.443 3.9718C22.151 3.19903 21.7017 2.50717 21.113 1.93202C20.5379 1.34792 19.8414 0.89405 19.0776 0.606564C18.3454 0.323466 17.5096 0.125841 16.2875 0.0719592C15.0563 0.0135143 14.6655 0 11.5428 0C8.42009 0 8.02923 0.0135143 6.80259 0.067396C5.58051 0.121278 4.74034 0.319078 4.0125 0.602001C3.23955 0.89405 2.54769 1.34336 1.97255 1.93202C1.38845 2.50717 0.934753 3.20359 0.647091 3.96741C0.363993 4.69982 0.166368 5.53542 0.112487 6.7575C0.0540416 7.9887 0.0405273 8.37957 0.0405273 11.5022C0.0405273 14.6249 0.0540416 15.0158 0.107923 16.2424C0.161805 17.4645 0.359605 18.3047 0.642703 19.0327C0.934753 19.8055 1.38845 20.4973 1.97255 21.0725C2.54769 21.6566 3.24412 22.1104 4.00794 22.3979C4.74034 22.681 5.57595 22.8787 6.7982 22.9325C8.02467 22.9866 8.41571 22.9999 11.5384 22.9999C14.6611 22.9999 15.0519 22.9866 16.2786 22.9325C17.5006 22.8787 18.3408 22.681 19.0687 22.3979C20.6144 21.8003 21.8365 20.5782 22.4341 19.0327C22.717 18.3003 22.9148 17.4645 22.9687 16.2424C23.0226 15.0158 23.0361 14.6249 23.0361 11.5022C23.0361 8.37957 23.0315 7.9887 22.9776 6.76206ZM20.9064 16.1526C20.8569 17.2758 20.6683 17.8824 20.511 18.2868C20.1245 19.2888 19.3293 20.084 18.3273 20.4705C17.9229 20.6277 17.312 20.8164 16.1931 20.8657C14.98 20.9198 14.6161 20.9331 11.5473 20.9331C8.47854 20.9331 8.11014 20.9198 6.9014 20.8657C5.77814 20.8164 5.17157 20.6277 4.7672 20.4705C4.26857 20.2862 3.8147 19.9941 3.44631 19.6122C3.06439 19.2393 2.77235 18.79 2.58806 18.2913C2.4308 17.887 2.24213 17.2758 2.19281 16.1571C2.13875 14.944 2.12541 14.58 2.12541 11.5112C2.12541 8.4424 2.13875 8.074 2.19281 6.86544C2.24213 5.74217 2.4308 5.13561 2.58806 4.73123C2.77235 4.23243 3.0644 3.77874 3.45087 3.41017C3.82365 3.02826 4.27296 2.73621 4.77176 2.5521C5.17614 2.39484 5.78726 2.20617 6.90597 2.15667C8.11909 2.10279 8.4831 2.08928 11.5517 2.08928C14.6251 2.08928 14.9889 2.10279 16.1977 2.15667C17.3209 2.20617 17.9275 2.39484 18.3319 2.5521C18.8305 2.73621 19.2844 3.02826 19.6528 3.41017C20.0347 3.78313 20.3267 4.23243 20.511 4.73123C20.6683 5.13561 20.8569 5.74656 20.9064 6.86544C20.9603 8.07857 20.9738 8.4424 20.9738 11.5112C20.9738 14.58 20.9603 14.9394 20.9064 16.1526Z" fill="#656973"/>
<path d="M11.5427 5.59387C8.2808 5.59387 5.63428 8.24022 5.63428 11.5023C5.63428 14.7643 8.2808 17.4106 11.5427 17.4106C14.8047 17.4106 17.451 14.7643 17.451 11.5023C17.451 8.24022 14.8047 5.59387 11.5427 5.59387ZM11.5427 15.3349C9.42653 15.3349 7.71004 13.6186 7.71004 11.5023C7.71004 9.38595 9.42653 7.66963 11.5427 7.66963C13.659 7.66963 15.3753 9.38595 15.3753 11.5023C15.3753 13.6186 13.659 15.3349 11.5427 15.3349Z" fill="#656973"/>
<path d="M19.0643 5.3603C19.0643 6.12201 18.4466 6.73963 17.6848 6.73963C16.923 6.73963 16.3054 6.12201 16.3054 5.3603C16.3054 4.5984 16.923 3.98096 17.6848 3.98096C18.4466 3.98096 19.0643 4.5984 19.0643 5.3603Z" fill="#656973"/>
</g>
<defs>
<clipPath id="clip0">
<rect width="23" height="23" fill="white"/>
</clipPath>
</defs>
</svg>
