<svg width="23" height="23" viewBox="0 0 23 23" fill="none" xmlns="http://www.w3.org/2000/svg">
<path d="M3.32242 1.16797C1.74129 1.16797 0.70752 2.20622 0.70752 3.57085C0.70752 4.90535 1.7105 5.9732 3.26175 5.9732H3.29176C4.90381 5.9732 5.90705 4.90535 5.90705 3.57085C5.87691 2.20622 4.90381 1.16797 3.32242 1.16797Z" fill="#656973"/>
<path d="M0.980713 7.87183H5.60302V21.7782H0.980713V7.87183Z" fill="#656973"/>
<path d="M16.9487 7.54541C14.4551 7.54541 12.7831 9.88854 12.7831 9.88854V7.8718H8.16064V21.7782H12.7828V14.0123C12.7828 13.5966 12.813 13.1815 12.9351 12.8842C13.2692 12.054 14.0297 11.194 15.3066 11.194C16.9792 11.194 17.6482 12.4692 17.6482 14.3387V21.7782H22.2701V13.8045C22.2701 9.53307 19.9896 7.54541 16.9487 7.54541Z" fill="#656973"/>
</svg>
