<svg width="357" height="357" viewBox="0 0 357 357" fill="none" xmlns="http://www.w3.org/2000/svg">
<g clip-path="url(#clip0)">
<path d="M44.7343 78.0663C44.7092 72.1604 42.3428 66.5055 38.1544 62.3415C29.4549 53.6935 15.4043 53.6935 6.70481 62.3415C2.51572 66.5055 0.149337 72.1604 0.124941 78.0663C-0.0416471 79.5112 -0.0416471 80.9707 0.124941 82.4157C0.377262 83.869 0.788504 85.2902 1.3517 86.6536C1.95044 87.9744 2.65931 89.243 3.47064 90.4453C4.27152 91.6958 5.20622 92.855 6.25872 93.9026C7.27358 94.9133 8.39509 95.811 9.60442 96.5791C10.7789 97.4344 12.0524 98.146 13.3962 98.6981C14.8746 99.4648 16.4506 100.028 18.0802 100.371C19.5251 100.533 20.9847 100.533 22.4296 100.371C28.3194 100.376 33.9723 98.0505 38.1544 93.9026C39.2069 92.855 40.1416 91.6958 40.9425 90.4453C41.7538 89.243 42.4627 87.9744 43.0614 86.6536C43.7731 85.3069 44.3342 83.8857 44.7343 82.4157C44.9008 80.9707 44.9008 79.5112 44.7343 78.0663Z" fill="white"/>
<path d="M44.7347 178.437C44.9006 176.992 44.9006 175.533 44.7347 174.088C44.3492 172.648 43.7874 171.263 43.0618 169.961C42.4875 168.593 41.7772 167.285 40.9429 166.058C40.1699 164.822 39.2317 163.696 38.1548 162.712C29.4553 154.064 15.4048 154.064 6.70524 162.712C2.51615 166.876 0.149762 172.531 0.125366 178.437C0.168581 181.376 0.735259 184.284 1.79822 187.024C2.35723 188.344 3.02915 189.612 3.80563 190.816C4.65391 192.028 5.62555 193.15 6.70524 194.162C7.69083 195.237 8.81582 196.175 10.0509 196.95C11.2254 197.806 12.4982 198.518 13.8427 199.069C15.2026 199.641 16.6252 200.053 18.0806 200.296C19.5074 200.616 20.9677 200.765 22.43 200.742C23.8749 200.908 25.3345 200.908 26.7794 200.742C28.1986 200.498 29.5842 200.087 30.9058 199.515C32.2866 198.967 33.597 198.255 34.8091 197.396C36.0442 196.621 37.1692 195.683 38.1548 194.608C39.2296 193.622 40.1678 192.497 40.9429 191.262C41.8002 190.088 42.5119 188.816 43.0618 187.47C43.8237 185.99 44.3862 184.415 44.7347 182.787C44.9061 181.342 44.9061 179.882 44.7347 178.437Z" fill="white"/>
<path d="M44.7346 278.809C44.8998 277.364 44.8998 275.904 44.7346 274.459C44.3491 272.984 43.7873 271.562 43.0617 270.221C42.463 268.9 41.7541 267.632 40.9428 266.43C40.1677 265.194 39.2295 264.069 38.1547 263.084C29.4552 254.436 15.4047 254.436 6.70514 263.084C5.63034 264.069 4.69215 265.194 3.91706 266.43C3.10573 267.632 2.39686 268.9 1.79812 270.221C1.21959 271.579 0.807652 273.002 0.571362 274.459C0.257005 275.887 0.107843 277.346 0.125269 278.809C0.150361 284.714 2.51675 290.369 6.70514 294.533C7.69073 295.608 8.81572 296.546 10.0508 297.321C11.2253 298.177 12.4981 298.889 13.8426 299.44C15.2025 300.013 16.6251 300.425 18.0805 300.667C19.5073 300.987 20.9676 301.137 22.4299 301.113C23.8749 301.28 25.3344 301.28 26.7793 301.113C28.1985 300.87 29.5841 300.458 30.9057 299.887C32.2865 299.339 33.5969 298.627 34.809 297.768C36.0441 296.993 37.1691 296.054 38.1547 294.98C39.2295 293.994 40.1677 292.869 40.9428 291.634C41.8008 290.461 42.5125 289.187 43.0617 287.842C43.8229 286.361 44.3854 284.786 44.7346 283.158C44.9061 281.713 44.9061 280.254 44.7346 278.809Z" fill="white"/>
<path d="M312.391 55.7616L89.3443 55.7616C77.0259 55.7616 67.0397 65.7478 67.0397 78.0663C67.0397 90.3847 77.0259 100.371 89.3443 100.371L312.391 100.371C324.709 100.371 334.696 90.3847 334.696 78.0663C334.696 65.7478 324.709 55.7616 312.391 55.7616Z" fill="white"/>
<path d="M334.696 156.132L89.3443 156.132C77.0259 156.132 67.0397 166.119 67.0397 178.437C67.0397 190.756 77.0259 200.742 89.3443 200.742L334.696 200.742C347.014 200.742 357 190.756 357 178.437C357 166.119 347.014 156.132 334.696 156.132Z" fill="white"/>
<path d="M234.325 256.504L89.3443 256.504C77.0259 256.504 67.0397 266.49 67.0397 278.809C67.0397 291.127 77.0259 301.113 89.3443 301.113L234.325 301.113C246.643 301.113 256.629 291.127 256.629 278.809C256.629 266.49 246.643 256.504 234.325 256.504Z" fill="white"/>
</g>
<defs>
<clipPath id="clip0">
<rect width="357" height="357" fill="white"/>
</clipPath>
</defs>
</svg>
