<svg width="84" height="84" viewBox="0 0 84 84" fill="none" xmlns="http://www.w3.org/2000/svg">
<g clip-path="url(#clip0)">
<path d="M7.0132 84C6.9628 84 6.9124 84 6.8606 83.9986C4.75784 83.9636 3.03166 81.2939 2.75727 77.6511C2.59907 75.5708 2.19168 73.5548 1.76049 71.4184C1.37549 69.5117 0.977898 67.5391 0.776302 65.5245C-0.107084 56.6795 -0.578875 46.2231 2.62707 35.7274C2.80767 35.1352 3.00086 34.5431 3.20526 33.9537C4.52124 30.1499 5.98421 27.2618 7.81118 24.865C12.5445 18.6519 20.7288 15.9304 32.8316 16.5716C37.0777 16.7941 43.8466 17.7181 47.9191 18.6337C51.6892 19.4793 55.5994 19.7803 59.5417 19.5255C65.3124 19.1517 71.9049 17.4955 75.5728 15.4978C77.719 14.3302 80.274 14.648 82.0799 16.3126C83.8453 17.9393 84.3633 20.4005 83.3973 22.5831C82.1121 25.488 79.3794 29.0285 75.2719 33.1053C74.1281 34.2421 72.6329 35.7512 71.2161 37.3346C67.4362 41.5625 53.7192 56.0621 35.9087 65.1283C32.3262 66.9511 28.7198 68.2069 25.1877 68.8579C21.5478 69.5285 16.61 71.592 13.7471 77.6035C13.6631 77.7785 13.5987 78.0375 13.5105 78.3371C13.0149 80.0353 11.8571 84 7.0132 84ZM5.30523 36.545C2.24348 46.5675 2.70687 56.6781 3.56365 65.2459C3.75125 67.1219 4.13485 69.0245 4.50584 70.8654C4.93423 72.9906 5.37802 75.1872 5.54882 77.4411C5.72802 79.8085 6.6296 81.0783 6.9754 81.2099C9.54015 81.2043 10.2121 79.6447 10.8239 77.5503C10.9527 77.1079 11.0647 76.7257 11.2201 76.3982C14.7677 68.9461 21.1768 66.7495 24.6809 66.1027C27.947 65.4993 31.2986 64.3318 34.6403 62.6322C52.0182 53.7871 65.4328 39.604 69.1316 35.4684C70.5973 33.8305 72.1303 32.2835 73.3021 31.1201C77.1604 27.2898 79.6958 24.0362 80.8396 21.4519C81.4135 20.1555 80.8774 19.0117 80.1858 18.3733C79.4606 17.7055 78.2216 17.2463 76.914 17.9589C72.2353 20.5055 64.9092 21.9853 59.7237 22.3213C55.514 22.5901 51.3365 22.2709 47.3073 21.3665C43.3608 20.4803 36.8019 19.5843 32.686 19.3687C21.419 18.7737 14.2259 21.0655 10.0399 26.5632C8.39917 28.7164 7.0692 31.3567 5.85402 34.8706C5.65802 35.4264 5.47602 35.985 5.30523 36.545Z" fill="#656973"/>
<path d="M9.68437 69.9999C9.56537 69.9999 9.44637 69.9845 9.32737 69.9537C8.80938 69.8165 8.41319 69.3965 8.31099 68.8701C8.28719 68.7483 8.24099 68.5453 8.17939 68.2738C7.53961 65.4164 5.59224 56.7225 6.91102 50.1273C7.06221 49.3699 7.8014 48.8771 8.55879 49.0297C9.31758 49.1809 9.80897 49.9187 9.65637 50.6775C8.92978 54.3076 9.21538 59.3657 10.5006 65.73C15.4215 61.1325 21.0326 59.6597 23.4097 59.2215C26.2083 58.7049 29.1762 57.3105 31.4498 56.1556C32.1386 55.8042 32.9814 56.0786 33.3328 56.7687C33.6828 57.4575 33.4084 58.3003 32.7196 58.6517C30.278 59.8949 27.0721 61.3943 23.9179 61.9767C21.524 62.4177 15.4481 64.0374 10.747 69.5155C10.4768 69.8263 10.0862 69.9999 9.68437 69.9999Z" fill="#656973"/>
<path d="M9.68434 40.5986C9.53314 40.5986 9.37775 40.5734 9.22655 40.5202C8.49576 40.2682 8.10797 39.4702 8.36136 38.7394C9.40155 35.7336 11.9901 30.9289 13.3789 29.1047C16.1732 25.4354 21.0788 23.7988 29.284 23.7988C30.0568 23.7988 30.684 24.426 30.684 25.1988C30.684 25.9716 30.0568 26.5988 29.284 26.5988C22.0391 26.5988 17.821 27.8952 15.6062 30.8015C14.3659 32.4311 11.9509 36.9264 11.0073 39.6564C10.8071 40.236 10.2639 40.5986 9.68434 40.5986Z" fill="#656973"/>
<path d="M44.6837 15.399C43.911 15.399 43.2838 14.7718 43.2838 13.9991C43.2838 10.1393 40.1436 6.99917 36.2839 6.99917C35.5111 6.99917 34.8839 6.37198 34.8839 5.5992C34.8839 4.82641 35.5111 4.19922 36.2839 4.19922C41.6878 4.19922 46.0837 8.59514 46.0837 13.9991C46.0837 14.7718 45.4565 15.399 44.6837 15.399Z" fill="#656973"/>
<path d="M50.2836 15.399C49.5109 15.399 48.8837 14.7718 48.8837 13.9991C48.8837 13.2263 49.5109 12.5991 50.2836 12.5991C54.1434 12.5991 57.2835 9.45893 57.2835 5.5992C57.2835 4.82641 57.9107 4.19922 58.6835 4.19922C59.4563 4.19922 60.0835 4.82641 60.0835 5.5992C60.0835 11.0031 55.6862 15.399 50.2836 15.399Z" fill="#656973"/>
<path d="M50.2823 55.9984C49.9519 55.9984 49.6187 55.8822 49.3527 55.6456C48.7745 55.1318 48.7227 54.247 49.2365 53.6688C59.5053 42.1162 52.2731 32.0588 51.9609 31.636C51.5017 31.0158 51.6291 30.1394 52.2479 29.6788C52.8666 29.2168 53.7402 29.3428 54.2036 29.9602C54.2946 30.0806 63.1537 42.2296 51.3295 55.5308C51.0523 55.8402 50.6687 55.9984 50.2823 55.9984Z" fill="#656973"/>
<path d="M50.2836 21.897C50.2108 21.897 50.1394 21.8914 50.0666 21.8802C49.1426 21.7346 48.2201 21.5708 47.3045 21.365C46.4575 21.1746 45.4747 20.9856 44.4387 20.8023C43.7709 20.6847 43.2838 20.1023 43.2838 19.4247V4.19993C43.2838 1.88437 45.1681 0 47.4837 0C49.7992 0 51.6836 1.88437 51.6836 4.19993V20.4971C51.6836 20.9059 51.5044 21.295 51.1936 21.561C50.9374 21.7794 50.614 21.897 50.2836 21.897ZM47.9191 18.6337C48.2397 18.7051 48.5617 18.7723 48.8837 18.8353V4.19993C48.8837 3.42854 48.2565 2.79995 47.4837 2.79995C46.7109 2.79995 46.0837 3.42854 46.0837 4.19993V18.2571C46.7375 18.3803 47.3563 18.5063 47.9191 18.6337Z" fill="#656973"/>
<path d="M40.4838 83.9994C38.1682 83.9994 36.2839 82.115 36.2839 79.7994V62.5923C36.2839 62.0799 36.5625 61.6095 37.0119 61.3645C38.8276 60.372 40.6854 59.273 42.5334 58.1012C42.9646 57.8268 43.5106 57.81 43.9585 58.0564C44.4065 58.3028 44.6837 58.7732 44.6837 59.2828V79.7994C44.6837 82.115 42.7994 83.9994 40.4838 83.9994ZM39.0838 63.4183V79.7994C39.0838 80.5708 39.711 81.1994 40.4838 81.1994C41.2566 81.1994 41.8838 80.5708 41.8838 79.7994V61.7929C40.9458 62.3571 40.0106 62.9003 39.0838 63.4183Z" fill="#656973"/>
<path d="M19.3792 20.45C18.927 20.45 18.493 20.2302 18.227 19.8452C16.911 17.9384 14.7649 16.8002 12.4843 16.8002H11.0843C8.76877 16.8002 6.8844 14.9159 6.8844 12.6003C6.8844 10.2848 8.76877 8.40039 11.0843 8.40039H12.4843C18.5154 8.40039 24.0215 11.9619 26.5107 17.475C26.6983 17.8894 26.6717 18.3682 26.4421 18.7588C26.2125 19.1508 25.8065 19.407 25.3543 19.4462C23.3257 19.6198 21.44 19.9418 19.7488 20.401C19.6256 20.4346 19.5024 20.45 19.3792 20.45ZM11.0843 11.2003C10.3115 11.2003 9.68435 11.8289 9.68435 12.6003C9.68435 13.3717 10.3115 14.0003 11.0843 14.0003H12.4843C15.3557 14.0003 18.0716 15.2813 19.928 17.4666C20.9066 17.2342 21.9355 17.0424 23.0051 16.8926C20.6994 13.3829 16.7514 11.2003 12.4843 11.2003H11.0843Z" fill="#656973"/>
<path d="M65.6834 65.7995H62.8835C56.3134 65.7995 50.4629 61.6192 48.3279 55.3963C48.1291 54.8167 48.3307 54.1741 48.8249 53.8129C50.4209 52.6439 52.042 51.3951 53.6436 50.1002C54.044 49.7768 54.5928 49.6984 55.0674 49.8986C55.5434 50.0988 55.8696 50.544 55.9172 51.0592C56.2546 54.6753 59.2491 57.401 62.8835 57.401H65.6834C67.999 57.401 69.8833 59.2854 69.8833 61.601C69.8833 63.9165 67.999 65.7995 65.6834 65.7995ZM51.3421 55.4327C53.33 59.9966 57.8477 62.9996 62.8835 62.9996H65.6834C66.4562 62.9996 67.0834 62.371 67.0834 61.5996C67.0834 60.8282 66.4562 60.1996 65.6834 60.1996H62.8835C58.6219 60.1996 54.9876 57.5214 53.6422 53.6771C52.875 54.2763 52.1064 54.8629 51.3421 55.4327Z" fill="#656973"/>
</g>
<defs>
<clipPath id="clip0">
<rect width="84" height="84" fill="white"/>
</clipPath>
</defs>
</svg>
