<svg width="1440" height="1846" viewBox="0 0 1440 1846" fill="none" xmlns="http://www.w3.org/2000/svg">
<g clip-path="url(#clip0)">
<path d="M1081.99 392.647C1071.32 381.076 1056.49 374.219 1040.76 373.585C1025.03 372.95 1009.69 378.59 998.124 389.263L881.784 496.579C831.606 542.751 765.165 567.136 697.032 564.387C628.899 561.638 564.638 531.979 518.343 481.915L411.028 365.575C400.354 354.004 385.522 347.148 369.793 346.513C354.064 345.878 338.727 351.518 327.157 362.191C315.586 372.864 308.729 387.697 308.094 403.426C307.46 419.155 313.099 434.491 323.773 446.062L431.089 562.402C498.745 635.582 592.666 678.937 692.248 682.955C791.83 686.973 888.939 651.326 962.271 583.834L1078.61 476.518C1090.18 465.845 1097.04 451.012 1097.67 435.283C1098.31 419.554 1092.67 404.218 1081.99 392.647V392.647Z" fill="#002C3F" fill-opacity="0.02"/>
<path d="M498.282 285.088L605.598 401.428C630.532 428.376 665.132 444.339 701.816 445.819C738.5 447.3 774.274 434.176 801.297 409.324L917.637 302.008C929.208 291.335 936.065 276.502 936.699 260.773C937.334 245.045 931.694 229.708 921.021 218.137C910.348 206.566 895.515 199.71 879.786 199.075C864.057 198.44 848.721 204.08 837.15 214.753L720.81 322.069C716.953 325.627 711.841 327.507 706.598 327.295C701.355 327.084 696.411 324.798 692.853 320.941L585.537 204.601C574.864 193.031 560.032 186.174 544.303 185.539C528.574 184.904 513.237 190.544 501.666 201.217C490.096 211.891 483.239 226.723 482.604 242.452C481.97 258.181 487.609 273.518 498.282 285.088Z" fill="#002C3F" fill-opacity="0.02"/>
<path d="M1215.9 1238.12L1108.58 1121.78C1062.41 1071.61 1038.02 1005.16 1040.77 937.032C1043.52 868.899 1073.18 804.638 1123.25 758.343L1239.58 651.028C1251.16 640.354 1258.01 625.522 1258.65 609.793C1259.28 594.064 1253.64 578.727 1242.97 567.157C1232.3 555.586 1217.46 548.729 1201.73 548.094C1186.01 547.46 1170.67 553.1 1159.1 563.773L1042.76 671.089C969.578 738.745 926.223 832.666 922.205 932.248C918.187 1031.83 953.834 1128.94 1021.33 1202.27L1128.64 1318.61C1139.32 1330.18 1154.15 1337.04 1169.88 1337.67C1185.61 1338.31 1200.94 1332.67 1212.51 1321.99C1224.08 1311.32 1230.94 1296.49 1231.58 1280.76C1232.21 1265.03 1226.57 1249.69 1215.9 1238.12Z" fill="#002C3F" fill-opacity="0.02"/>
<path d="M1195.84 1041.3L1303.15 1157.64C1313.83 1169.21 1328.66 1176.06 1344.39 1176.7C1360.12 1177.33 1375.45 1171.69 1387.02 1161.02C1398.59 1150.35 1405.45 1135.52 1406.09 1119.79C1406.72 1104.06 1401.08 1088.72 1390.41 1077.15L1283.09 960.81C1279.53 956.953 1277.65 951.841 1277.86 946.598C1278.08 941.355 1280.36 936.411 1284.22 932.853L1400.56 825.538C1412.13 814.864 1418.99 800.032 1419.62 784.303C1420.26 768.574 1414.62 753.237 1403.94 741.667C1393.27 730.096 1378.44 723.239 1362.71 722.604C1346.98 721.97 1331.64 727.609 1320.07 738.283L1203.73 845.599C1176.78 870.532 1160.82 905.133 1159.34 941.816C1157.86 978.5 1170.98 1014.27 1195.84 1041.3Z" fill="#002C3F" fill-opacity="0.02"/>
<path d="M343.834 642.889L236.518 526.549C225.845 514.978 211.012 508.122 195.283 507.487C179.554 506.852 164.218 512.492 152.647 523.165C141.076 533.838 134.219 548.671 133.585 564.4C132.95 580.129 138.59 595.465 149.263 607.036L256.579 723.376C302.751 773.554 327.136 839.995 324.387 908.128C321.638 976.261 291.979 1040.52 241.915 1086.82L125.575 1194.13C114.005 1204.81 107.148 1219.64 106.513 1235.37C105.878 1251.1 111.518 1266.43 122.191 1278C132.865 1289.57 147.697 1296.43 163.426 1297.07C179.155 1297.7 194.492 1292.06 206.062 1281.39L322.402 1174.07C395.582 1106.42 438.937 1012.49 442.955 912.912C446.973 813.33 411.326 716.221 343.834 642.889Z" fill="#002C3F" fill-opacity="0.02"/>
<path d="M169.324 803.863L62.0081 687.523C51.3349 675.952 36.5024 669.095 20.7735 668.461C5.04469 667.826 -10.2921 673.466 -21.8628 684.139C-33.4335 694.812 -40.2904 709.645 -40.925 725.374C-41.5596 741.103 -35.9199 756.439 -25.2467 768.01L82.0692 884.35C85.627 888.207 87.5069 893.319 87.2953 898.562C87.0838 903.805 84.7981 908.749 80.9412 912.307L-35.3985 1019.62C-46.9693 1030.3 -53.8262 1045.13 -54.4608 1060.86C-55.0954 1076.59 -49.4557 1091.92 -38.7825 1103.49C-28.1093 1115.06 -13.2767 1121.92 2.4521 1122.56C18.1809 1123.19 33.5177 1117.55 45.0884 1106.88L161.428 999.562C188.376 974.628 204.339 940.028 205.82 903.344C207.3 866.661 194.176 830.886 169.324 803.863Z" fill="#002C3F" fill-opacity="0.02"/>
<path d="M1041.39 1399.1L934.072 1282.76C866.416 1209.58 772.494 1166.22 672.912 1162.21C573.33 1158.19 476.221 1193.83 402.889 1261.33L286.549 1368.64C274.979 1379.32 268.122 1394.15 267.487 1409.88C266.852 1425.61 272.492 1440.94 283.165 1452.51C293.839 1464.08 308.671 1470.94 324.4 1471.58C340.129 1472.21 355.466 1466.57 367.036 1455.9L483.376 1348.58C533.554 1302.41 599.995 1278.02 668.128 1280.77C736.261 1283.52 800.522 1313.18 846.817 1363.25L954.133 1479.58C964.806 1491.16 979.638 1498.01 995.367 1498.65C1011.1 1499.28 1026.43 1493.64 1038 1482.97C1049.57 1472.3 1056.43 1457.46 1057.07 1441.73C1057.7 1426.01 1052.06 1410.67 1041.39 1399.1Z" fill="#002C3F" fill-opacity="0.02"/>
<path d="M866.878 1560.07L759.562 1443.73C734.628 1416.78 700.028 1400.82 663.344 1399.34C626.661 1397.86 590.887 1410.98 563.863 1435.84L447.523 1543.15C435.953 1553.83 429.096 1568.66 428.461 1584.39C427.826 1600.12 433.466 1615.45 444.139 1627.02C454.812 1638.59 469.645 1645.45 485.374 1646.09C501.103 1646.72 516.439 1641.08 528.01 1630.41L644.35 1523.09C648.207 1519.53 653.319 1517.65 658.562 1517.86C663.805 1518.08 668.749 1520.36 672.307 1524.22L779.623 1640.56C790.296 1652.13 805.129 1658.99 820.858 1659.62C836.586 1660.26 851.923 1654.62 863.494 1643.94C875.065 1633.27 881.921 1618.44 882.556 1602.71C883.191 1586.98 877.551 1571.64 866.878 1560.07Z" fill="#002C3F" fill-opacity="0.02"/>
</g>
<defs>
<clipPath id="clip0">
<rect width="1305.79" height="1305.79" fill="white" transform="translate(719.804) rotate(47.3105)"/>
</clipPath>
</defs>
</svg>
