<svg width="48" height="48" viewBox="0 0 48 48" fill="none" xmlns="http://www.w3.org/2000/svg">
<circle cx="24" cy="24" r="24" fill="white" fill-opacity="0.27"/>
<path d="M32.7422 23.7995L26.2308 17.2879C26.0449 17.102 25.7972 17 25.533 17C25.2686 17 25.021 17.1022 24.8351 17.2879L24.244 17.8792C24.0582 18.0648 23.9559 18.3127 23.9559 18.577C23.9559 18.8411 24.0582 19.0974 24.244 19.283L28.0426 23.09H15.9741C15.4299 23.09 15 23.516 15 24.0602V24.8962C15 25.4405 15.4299 25.9094 15.9741 25.9094H28.0857L24.2441 29.7377C24.0584 29.9236 23.9561 30.1647 23.9561 30.429C23.9561 30.693 24.0584 30.9377 24.2441 31.1234L24.8353 31.7128C25.0212 31.8987 25.2687 32 25.5332 32C25.7973 32 26.0451 31.8974 26.2309 31.7115L32.7424 25.2001C32.9287 25.0136 33.0311 24.7647 33.0304 24.5001C33.031 24.2347 32.9287 23.9856 32.7422 23.7995Z" fill="white"/>
</svg>
