<svg width="48" height="48" viewBox="0 0 48 48" fill="none" xmlns="http://www.w3.org/2000/svg">
<circle cx="24" cy="24.0005" r="24" fill="white" fill-opacity="0.27"/>
<path d="M15.2578 23.7999L21.7692 17.2884C21.9551 17.1025 22.2028 17.0005 22.467 17.0005C22.7314 17.0005 22.979 17.1027 23.1649 17.2884L23.756 17.8797C23.9418 18.0653 24.0441 18.3132 24.0441 18.5775C24.0441 18.8416 23.9418 19.0979 23.756 19.2834L19.9574 23.0905H32.0259C32.5701 23.0905 33 23.5164 33 24.0607V24.8967C33 25.441 32.5701 25.9099 32.0259 25.9099H19.9143L23.7559 29.7382C23.9416 29.9241 24.0439 30.1652 24.0439 30.4295C24.0439 30.6935 23.9416 30.9382 23.7559 31.1239L23.1647 31.7133C22.9788 31.8992 22.7313 32.0005 22.4668 32.0005C22.2027 32.0005 21.9549 31.8979 21.7691 31.712L15.2576 25.2006C15.0713 25.0141 14.9689 24.7652 14.9696 24.5006C14.969 24.2352 15.0713 23.9861 15.2578 23.7999Z" fill="white"/>
</svg>
