<svg width="71" height="45" viewBox="0 0 71 45" fill="none" xmlns="http://www.w3.org/2000/svg">
<path d="M15.8206 45C24.7669 45 31.8309 37.7465 31.8309 28.8002C31.8309 19.8539 24.4833 12.6004 15.537 12.6004C15.4475 12.6004 15.3125 12.6125 15.223 12.614C18.7603 9.79725 23.2031 8.0999 28.0661 8.0999C30.3034 8.0999 32.1039 6.28576 32.1039 4.04995C32.1039 1.81413 30.6644 -7.62939e-06 28.4271 -7.62939e-06C12.5473 0.00151062 2.67029e-05 12.9204 2.67029e-05 28.8002C2.67029e-05 28.8032 2.67029e-05 28.8062 2.67029e-05 28.8108C2.67029e-05 37.7526 6.87737 45 15.8206 45Z" fill="white"/>
<path d="M53.7643 45C62.7106 45 69.7867 37.7465 69.7867 28.8002C69.7867 19.8539 62.4452 12.6004 53.4974 12.6004C53.4079 12.6004 53.2759 12.6125 53.1864 12.614C56.7237 9.79725 61.168 8.0999 66.031 8.0999C68.2683 8.0999 70.0703 6.28576 70.0703 4.04995C70.0703 1.81413 68.6081 -7.62939e-06 66.3708 -7.62939e-06C50.491 0.00151062 37.921 12.9204 37.921 28.8002C37.921 28.8032 37.921 28.8062 37.921 28.8108C37.921 37.7526 44.8211 45 53.7643 45Z" fill="white"/>
</svg>
