<svg width="12" height="12" viewBox="0 0 12 12" fill="none" xmlns="http://www.w3.org/2000/svg">
<path d="M11.8082 5.53375L7.47457 1.20003C7.35087 1.07632 7.18599 1.00842 7.01019 1.00842C6.83419 1.00842 6.66941 1.07642 6.5457 1.20003L6.15224 1.59359C6.02863 1.7171 5.96054 1.88207 5.96054 2.05798C5.96054 2.23378 6.02863 2.40431 6.15224 2.52783L8.68042 5.06156H0.648287C0.286144 5.06156 0 5.34507 0 5.70731V6.2637C0 6.62594 0.286144 6.93803 0.648287 6.93803H8.7091L6.15234 9.48592C6.02873 9.60962 5.96063 9.77011 5.96063 9.94601C5.96063 10.1217 6.02873 10.2845 6.15234 10.4082L6.5458 10.8004C6.66951 10.9241 6.83429 10.9916 7.01028 10.9916C7.18609 10.9916 7.35096 10.9233 7.47467 10.7996L11.8083 6.46594C11.9323 6.34184 12.0005 6.17619 12 6.00009C12.0004 5.82341 11.9323 5.65765 11.8082 5.53375Z" fill="white"/>
</svg>
