<svg width="66" height="67" viewBox="0 0 66 67" fill="none" xmlns="http://www.w3.org/2000/svg">
<g clip-path="url(#clip0)">
<path d="M16.3657 49.1887C16.3657 51.0465 17.8735 52.5581 19.7268 52.5581C21.5801 52.5581 23.0879 51.0465 23.0879 49.1887C23.0879 47.3306 21.5801 45.8192 19.7268 45.8192C17.8735 45.8191 16.3657 47.3306 16.3657 49.1887ZM21.1544 49.1887C21.1544 49.9777 20.514 50.6197 19.7269 50.6197C18.9398 50.6197 18.2993 49.9777 18.2993 49.1887C18.2993 48.3996 18.9397 47.7575 19.7269 47.7575C20.5142 47.7575 21.1544 48.3995 21.1544 49.1887Z" fill="#74788D"/>
<path d="M58.6375 28.3484C60.7825 27.123 60.785 24.0235 58.6375 22.7966C58.161 22.5245 57.8906 21.956 58.0499 21.3699C58.7012 18.9855 56.5212 16.7898 54.1312 17.4455C53.5788 17.5972 52.9947 17.3546 52.7111 16.8557C51.4888 14.7053 48.3969 14.7029 47.1732 16.8557C46.8896 17.3546 46.3057 17.5972 45.7501 17.4447C43.43 16.808 41.1802 18.9008 41.8353 21.3732C41.9866 21.927 41.7447 22.5123 41.247 22.7967C39.102 24.0222 39.0994 27.1217 41.247 28.3484C41.7447 28.6329 41.9867 29.2181 41.8345 29.7751C41.1832 32.1595 43.3634 34.3554 45.7532 33.6996C46.3058 33.548 46.8897 33.7906 47.1732 34.2894C48.3956 36.44 51.4874 36.4422 52.7111 34.2894C52.9947 33.7904 53.5784 33.5479 54.1343 33.7004C56.5097 34.3526 58.7057 32.1701 58.049 29.772C57.8978 29.2181 58.1398 28.6327 58.6375 28.3484ZM57.6802 26.6644C56.4359 27.3752 55.7912 28.8489 56.185 30.2871C56.4408 31.2237 55.5855 32.0892 54.642 31.8301C53.2369 31.4443 51.7525 32.0612 51.0314 33.3297C50.5505 34.1756 49.3344 34.1763 48.8532 33.3297C48.1341 32.0645 46.6511 31.4434 45.2395 31.831C44.3054 32.0873 43.4419 31.2301 43.7003 30.284C44.085 28.8758 43.4697 27.3872 42.2044 26.6644C41.3607 26.1825 41.3598 24.9635 42.2044 24.4808C43.4698 23.7579 44.085 22.2694 43.7036 20.8733C43.4397 19.8774 44.3291 19.0645 45.2426 19.3152C46.6471 19.7006 48.132 19.0841 48.8531 17.8156C49.3339 16.9697 50.55 16.969 51.0312 17.8156C51.7525 19.0842 53.2373 19.7006 54.645 19.3145C55.5729 19.0594 56.4436 19.9075 56.1841 20.8614C55.7996 22.2697 56.4147 23.7582 57.6801 24.4811C58.5238 24.9628 58.5248 26.1818 57.6802 26.6644Z" fill="#74788D"/>
<path d="M62.2483 15.9656C61.9199 15.5435 61.3125 15.468 60.8914 15.7973C60.4704 16.1264 60.3952 16.7355 60.7236 17.1575C62.6092 19.5816 63.6059 22.4914 63.6059 25.5724C63.6059 33.1253 57.4764 39.2699 49.9424 39.2699C42.5761 39.2699 36.5319 33.3693 36.2873 26.0353C39.0908 23.2227 38.9889 23.3383 39.1452 23.1467C39.1782 23.0879 39.8699 22.3488 39.8699 21.1031C39.8699 19.3618 38.615 18.5846 38.3815 18.2702C40.8768 14.3075 45.2417 11.875 49.9425 11.875C52.9293 11.875 55.7662 12.8237 58.1467 14.6186C58.5735 14.9404 59.1795 14.8543 59.5005 14.4266C59.8215 13.9989 59.7356 13.3912 59.309 13.0695C56.5907 11.0201 53.3518 9.93676 49.9425 9.93676C44.723 9.93676 39.8678 12.5652 36.9857 16.871L36.307 16.1907C35.2861 15.1672 33.7461 14.9739 32.5288 15.6102L20.5279 3.57946C18.7438 1.79122 15.9714 1.58524 13.9584 2.9593L12.0554 1.05153C10.6569 -0.350446 8.39343 -0.350575 6.9948 1.05153L4.43769 3.61487C3.03918 5.01685 3.03905 7.28606 4.43769 8.68804L6.33995 10.595C5.1789 12.2977 5.14899 14.5354 6.22935 16.2619C2.50396 20.473 0.460541 25.8438 0.460541 31.4778C0.460541 34.5903 1.07671 37.6132 2.29191 40.4625C2.50177 40.9546 3.06973 41.1828 3.56087 40.9726C4.05187 40.7622 4.27965 40.1926 4.06979 39.7003C2.95784 37.0932 2.39413 34.3267 2.39413 31.4776C2.39413 26.4037 4.20424 21.5615 7.51094 17.7343L12.5468 22.7828C10.5689 25.2494 9.48952 28.3026 9.48952 31.4776C9.48952 35.9331 11.6429 40.1044 15.199 42.7023C13.531 44.006 13.1516 45.2392 11.0008 48.4322C9.00406 46.9702 7.29541 45.1831 5.91237 43.1087C5.61576 42.6636 5.01544 42.544 4.57136 42.8414C4.12741 43.1389 4.00804 43.7407 4.30478 44.1858C5.83645 46.4833 7.73549 48.4568 9.95642 50.0657L6.68581 55.1814C3.74069 55.4581 1.42772 57.9494 1.42772 60.9731V63.1189C1.42785 64.798 2.79039 66.164 4.46527 66.164H48.7731C50.8961 66.164 52.6234 64.4325 52.6234 62.3041C52.6234 58.3621 49.4242 55.155 45.492 55.155H27.9923V51.653H42.3459C43.9468 51.653 45.2493 50.3473 45.2493 48.7424C45.2493 45.4579 42.5838 42.7856 39.3073 42.7856H25.0253C23.6665 41.6898 21.942 41.0319 20.0664 41.0319C19.0153 41.0319 17.9973 41.2379 17.0592 41.6223C13.571 39.4451 11.4231 35.6028 11.4231 31.4778C11.4231 28.8178 12.3063 26.2575 13.9249 24.1643L18.9597 29.2117C18.3288 30.4189 18.506 31.9641 19.5394 32.9999L22.1566 35.6236C23.4185 36.8886 25.4609 36.8887 26.723 35.6236L34.5064 27.8209C34.9828 31.1561 36.5152 34.2343 38.9382 36.6528C41.8811 39.5905 45.7891 41.2084 49.9425 41.2084C58.5427 41.2084 65.5396 34.1941 65.5396 25.5725C65.5395 22.0556 64.4014 18.7335 62.2483 15.9656ZM50.6898 62.3041C50.6898 63.3636 49.83 64.2256 48.7731 64.2256H4.46527C3.85658 64.2256 3.36145 63.7292 3.36145 63.119V60.9732C3.36145 58.8339 5.09756 57.0933 7.2316 57.0933H45.492C48.3581 57.0933 50.6898 59.4309 50.6898 62.3041ZM39.3073 44.724C41.5176 44.724 43.3157 46.5267 43.3157 48.7424C43.3157 49.2785 42.8806 49.7146 42.3459 49.7146H27.9925C27.9439 49.3826 28.2856 47.1354 26.759 44.724H39.3073ZM26.0577 48.9346C26.0578 48.9491 26.0589 48.9633 26.0589 48.9776V55.155H8.99955C15.4588 45.0528 15.1292 45.5274 15.5174 45.0685C16.6305 43.7694 18.2624 42.9703 20.0664 42.9703C23.3353 42.9703 26.0337 45.6162 26.0577 48.9346ZM19.1605 4.95017L31.0568 16.876L23.8342 24.1165L20.2229 27.7367C7.42457 14.9064 8.32808 15.8166 8.20201 15.6783C7.06351 14.4046 7.10076 12.4449 8.32666 11.2161L14.5771 4.95017C15.8405 3.68362 17.8967 3.6831 19.1605 4.95017ZM5.80486 4.98544L8.36185 2.42211C9.00316 1.77921 10.0467 1.77908 10.6881 2.42211L12.5262 4.26475L7.64307 9.16011L5.80486 7.31747C5.16356 6.67456 5.16356 5.62835 5.80486 4.98544ZM25.3557 34.2528C24.8497 34.7601 24.03 34.7604 23.5237 34.2528L20.9065 31.6291C20.4003 31.1216 20.4001 30.3003 20.9065 29.7925L24.9735 25.7154L33.1079 17.5609C33.6141 17.0538 34.4333 17.0536 34.9396 17.5611L37.5567 20.1848C38.0497 20.6806 38.0735 21.5002 37.5567 22.0214L25.3557 34.2528Z" fill="#74788D"/>
</g>
<defs>
<clipPath id="clip0">
<rect width="66" height="66.164" fill="white"/>
</clipPath>
</defs>
</svg>
