<svg width="66" height="66" viewBox="0 0 66 66" fill="none" xmlns="http://www.w3.org/2000/svg">
<g clip-path="url(#clip0)">
<path d="M30.6757 19.5984H27.2589V16.1731C27.2589 15.4612 26.6831 14.8842 25.9731 14.8842C25.2632 14.8842 24.6874 15.4613 24.6874 16.1731V19.5984H21.2706C20.5605 19.5984 19.9849 20.1755 19.9849 20.8874C19.9849 21.5992 20.5605 22.1763 21.2706 22.1763H24.6874V25.6016C24.6874 26.3135 25.2632 26.8905 25.9731 26.8905C26.6831 26.8905 27.2589 26.3134 27.2589 25.6016V22.1763H30.6757C31.3857 22.1763 31.9614 21.5992 31.9614 20.8874C31.9614 20.1755 31.3857 19.5984 30.6757 19.5984Z" fill="#74788D"/>
<path d="M25.973 9.54443C19.7339 9.54443 14.658 14.633 14.658 20.8875C14.658 27.142 19.7339 32.2306 25.973 32.2306C32.212 32.2306 37.2879 27.142 37.2879 20.8875C37.2879 14.633 32.212 9.54443 25.973 9.54443ZM25.973 29.6525C21.1518 29.6525 17.2296 25.7205 17.2296 20.8874C17.2296 16.0543 21.1518 12.1223 25.973 12.1223C30.7941 12.1223 34.7163 16.0543 34.7163 20.8874C34.7163 25.7205 30.7941 29.6525 25.973 29.6525Z" fill="#74788D"/>
<path d="M51.5692 11.8527L40.1258 0.380755C39.8845 0.139056 39.5575 0.00318909 39.2165 0.00318909H3.85735C1.73039 0.00318909 0 1.73801 0 3.87024V62.1324C0 64.2646 1.73039 65.9993 3.85735 65.9993H28.4186C29.1286 65.9993 29.7043 65.4221 29.7043 64.7104C29.7043 63.9987 29.1285 63.4215 28.4186 63.4215H3.85735C3.14832 63.4215 2.57161 62.8432 2.57161 62.1325V3.87024C2.57161 3.15945 3.14845 2.58131 3.85735 2.58131H37.9307V10.1862C37.9307 12.3185 39.6611 14.0532 41.788 14.0532H49.3741V36.997C49.3741 37.7088 49.9499 38.2859 50.6599 38.2859C51.3698 38.2859 51.9456 37.7087 51.9456 36.997V12.7641C51.9459 12.4222 51.8103 12.0944 51.5692 11.8527ZM41.7881 11.4752C41.0791 11.4752 40.5024 10.8969 40.5024 10.1862V4.40417L47.556 11.4752H41.7881Z" fill="#74788D"/>
<path d="M42.431 36.0934H20.1011C19.3911 36.0934 18.8154 36.6706 18.8154 37.3823C18.8154 38.094 19.3912 38.6712 20.1011 38.6712H42.431C43.141 38.6712 43.7167 38.0941 43.7167 37.3823C43.7168 36.6706 43.141 36.0934 42.431 36.0934Z" fill="#74788D"/>
<path d="M13.7044 36.0934H9.51474C8.80469 36.0934 8.229 36.6706 8.229 37.3823C8.229 38.094 8.80482 38.6712 9.51474 38.6712H13.7044C14.4144 38.6712 14.9901 38.094 14.9901 37.3823C14.9901 36.6706 14.4144 36.0934 13.7044 36.0934Z" fill="#74788D"/>
<path d="M32.9162 43.3116H20.1011C19.3911 43.3116 18.8154 43.8889 18.8154 44.6006C18.8154 45.3123 19.3912 45.8895 20.1011 45.8895H32.9162C33.6263 45.8895 34.2019 45.3124 34.2019 44.6006C34.2019 43.8889 33.6263 43.3116 32.9162 43.3116Z" fill="#74788D"/>
<path d="M13.7044 43.3116H9.51474C8.80469 43.3116 8.229 43.8889 8.229 44.6006C8.229 45.3123 8.80482 45.8895 9.51474 45.8895H13.7044C14.4144 45.8895 14.9901 45.3123 14.9901 44.6006C14.9901 43.8889 14.4144 43.3116 13.7044 43.3116Z" fill="#74788D"/>
<path d="M21.0097 50.9077C20.7707 50.668 20.4401 50.53 20.1007 50.53C19.7626 50.53 19.4321 50.6678 19.1916 50.9077C18.9525 51.1475 18.8149 51.4801 18.8149 51.8191C18.8149 52.1581 18.9523 52.4907 19.1916 52.7303C19.4308 52.9701 19.7626 53.1082 20.1007 53.1082C20.4402 53.1082 20.7707 52.9702 21.0097 52.7303C21.2502 52.4907 21.3866 52.1581 21.3866 51.8191C21.3866 51.4801 21.2502 51.1475 21.0097 50.9077Z" fill="#74788D"/>
<path d="M13.7044 50.53H9.51474C8.80469 50.53 8.229 51.1073 8.229 51.819C8.229 52.5308 8.80482 53.1079 9.51474 53.1079H13.7044C14.4144 53.1079 14.9901 52.5307 14.9901 51.819C14.9902 51.1073 14.4144 50.53 13.7044 50.53Z" fill="#74788D"/>
<path d="M57.8645 50.0141C57.4871 50.0141 57.1163 50.0423 56.7529 50.0935C57.5631 47.3692 56.8976 44.2943 54.7558 42.147C53.2501 40.6376 51.2482 39.8063 49.1188 39.8063C46.9893 39.8063 44.9875 40.6376 43.4818 42.147L33.2989 52.355C31.7933 53.8645 30.9641 55.8713 30.9641 58.006C30.9641 60.1408 31.7933 62.1476 33.2989 63.657C34.8533 65.2151 36.8942 65.9939 38.9359 65.9939C40.9771 65.9939 43.0189 65.2147 44.5729 63.657L49.9005 58.3162C50.0639 62.5795 53.5727 65.9977 57.8647 65.9977C62.2605 65.9977 65.8367 62.4127 65.8367 58.0059C65.8367 53.5991 62.2604 50.0141 57.8645 50.0141ZM42.7543 61.8341C40.6488 63.9451 37.2228 63.9451 35.1173 61.8341C34.0972 60.8117 33.5355 59.4522 33.5355 58.0062C33.5355 56.5601 34.0972 55.2005 35.1173 54.1782L39.2996 49.9855L46.9366 57.6416L42.7543 61.8341ZM48.7548 55.8186L41.1178 48.1625L45.3001 43.97C46.3201 42.9474 47.6761 42.3843 49.1186 42.3843C50.5611 42.3843 51.9173 42.9474 52.9371 43.97C55.0427 46.0807 55.0427 49.5152 52.9371 51.626L48.7548 55.8186ZM56.5788 63.2636C54.22 62.6835 52.4641 60.5469 52.4641 58.006C52.4641 55.465 54.2199 53.3284 56.5788 52.7486V63.2636ZM59.1503 63.2636V52.7485C61.5092 53.3284 63.2649 55.465 63.2649 58.0059C63.2649 60.5468 61.5092 62.6835 59.1503 63.2636Z" fill="#74788D"/>
</g>
<defs>
<clipPath id="clip0">
<rect width="65.8366" height="66" fill="white"/>
</clipPath>
</defs>
</svg>
