<svg width="23" height="20" viewBox="0 0 23 20" fill="none" xmlns="http://www.w3.org/2000/svg">
<path opacity="0.3" d="M13.6967 13.9226C13.3225 13.5972 13.3225 13.0695 13.6967 12.7441C14.071 12.4186 14.6777 12.4186 15.052 12.7441L18.8853 16.0774C19.2596 16.4028 19.2596 16.9305 18.8853 17.2559C18.5111 17.5814 17.9043 17.5814 17.53 17.2559L13.6967 13.9226Z" fill="#526AE5"/>
<path fill-rule="evenodd" clip-rule="evenodd" d="M3.83203 9.16634C3.83203 12.388 6.83545 14.9997 10.5404 14.9997C14.2453 14.9997 17.2487 12.388 17.2487 9.16634C17.2487 5.94468 14.2453 3.33301 10.5404 3.33301C6.83545 3.33301 3.83203 5.94468 3.83203 9.16634ZM15.3329 9.16862C15.3329 11.4698 13.1876 13.3353 10.5412 13.3353C7.89488 13.3353 5.74958 11.4698 5.74958 9.16862C5.74958 6.86743 7.89488 5.00195 10.5412 5.00195C13.1876 5.00195 15.3329 6.86743 15.3329 9.16862Z" fill="#00B0E7"/>
</svg>
