<svg width="112" height="128" viewBox="0 0 112 128" fill="none" xmlns="http://www.w3.org/2000/svg">
<path d="M100.023 29.3472C91.4752 26.4598 84.6347 19.6767 81.7249 11.2022C81.3235 10.0335 80.2284 9.24828 78.9997 9.24828H33.0005C31.7721 9.24828 30.677 10.0335 30.2754 11.2024C27.3655 19.6767 20.5251 26.4598 11.9775 29.3469C10.8004 29.7443 10.0096 30.8414 10.0096 32.0766V53.8824C10.0096 68.7421 14.7235 82.8757 23.6417 94.755C31.5191 105.248 42.655 113.543 54.998 118.111C55.6442 118.35 56.3559 118.35 57.0017 118.111C67.6827 114.158 77.3321 107.545 84.9067 98.9857C85.5937 98.2094 85.5213 97.0232 84.7451 96.3363C83.9686 95.6492 82.7824 95.7217 82.0957 96.498C75.0008 104.515 65.983 110.727 55.9998 114.478C44.4447 110.135 34.0288 102.34 26.6433 92.5016C18.2169 81.2771 13.763 67.9228 13.763 53.8824V32.6994C22.9382 29.404 30.2959 22.1051 33.6197 13.0017H78.3799C81.7036 22.1051 89.0613 29.404 98.2365 32.6994V53.8824C98.2365 66.6864 94.4876 79.0474 87.3952 89.6293C86.8181 90.4904 87.0481 91.6563 87.9092 92.2333C88.7703 92.8106 89.9361 92.5804 90.5132 91.7193C98.0215 80.5171 101.99 67.4334 101.99 53.8826V32.0768C101.99 30.8416 101.2 29.7445 100.023 29.3472ZM50.3695 75.6759C50.3695 78.7807 52.8952 81.3064 56 81.3064C59.1048 81.3064 61.6305 78.7807 61.6305 75.6759V70.7553C62.3682 69.6468 62.7566 68.3623 62.7566 67.0207C62.7566 65.1696 61.9846 63.3789 60.6385 62.1077C59.2732 60.8184 57.4857 60.1685 55.6056 60.2754C52.2831 60.4655 49.5592 63.1069 49.2697 66.4191C49.1353 67.9554 49.5249 69.4828 50.3695 70.7551V75.6759ZM53.0093 66.7459C53.1375 65.278 54.3461 64.1076 55.8203 64.023C55.8804 64.0195 55.9402 64.0178 55.9998 64.0178C56.7718 64.0178 57.4982 64.3048 58.0613 64.8368C58.6686 65.4104 59.0029 66.1859 59.0029 67.0207C59.0029 67.6646 58.802 68.2779 58.4221 68.7952C58.0655 69.2804 57.8768 69.863 57.8768 70.4793V75.6757C57.8768 76.7107 57.035 77.5525 56 77.5525C54.965 77.5525 54.1232 76.7107 54.1232 75.6757V70.4791C54.1232 69.8632 53.9345 69.2804 53.5774 68.7944C53.2728 68.3798 52.9268 67.6876 53.0093 66.7459ZM107.376 21.5345C98.0413 20.5849 90.5675 13.1816 89.6048 3.93084C89.3713 1.6899 87.4998 0 85.2506 0H26.7494C24.5005 0 22.6287 1.6899 22.3957 3.93084C21.4328 13.1814 13.959 20.5849 4.62459 21.5345C2.3789 21.763 0.685242 23.6351 0.685242 25.8893V53.8826C0.685242 70.6027 5.95414 86.5348 15.9224 99.9564C20.7183 106.414 26.4649 112.08 33.0026 116.798C39.621 121.575 46.9051 125.272 54.6527 127.788C55.5215 128.071 56.4787 128.071 57.3476 127.788C65.0949 125.272 72.379 121.574 78.9975 116.798C85.5351 112.08 91.2817 106.414 96.0776 99.9564C106.046 86.5348 111.315 70.6027 111.315 53.8826V25.8893C111.315 23.6351 109.621 21.7628 107.376 21.5345ZM107.561 53.8826C107.561 69.7907 102.548 84.9487 93.0642 97.7184C83.7644 110.24 71.0127 119.404 56.1879 124.218C56.0668 124.258 55.9332 124.258 55.8121 124.218C40.9871 119.404 28.2354 110.24 18.9358 97.7184C9.45205 84.9487 4.43891 69.7907 4.43891 53.8826V25.8893C4.43891 25.5682 4.68189 25.3015 5.00446 25.2689C16.0988 24.1403 24.983 15.3297 26.1291 4.31947C26.1626 3.9969 26.4294 3.75367 26.7494 3.75367H85.2506C85.5706 3.75367 85.8374 3.9969 85.8709 4.31947C87.0171 15.3297 95.9012 24.1403 106.996 25.2689C107.318 25.3017 107.561 25.5685 107.561 25.8893V53.8826ZM40.7817 31.7355C41.3337 30.8581 41.0699 29.6995 40.1926 29.1475C39.3152 28.5952 38.1563 28.8594 37.6045 29.7365C35.4304 33.1922 34.2813 37.1813 34.2813 41.2728V51.7118C31.4158 53.3198 29.4741 56.3866 29.4741 59.8997V81.671C29.4741 86.8456 33.6837 91.0552 38.8583 91.0552H73.1417C78.3163 91.0552 82.5259 86.8456 82.5259 81.671V59.8997C82.5259 56.3866 80.5843 53.3201 77.7187 51.7118V41.2728C77.7187 29.2971 67.9757 19.5541 56 19.5541C51.864 19.5541 47.838 20.7265 44.3574 22.9447C43.4833 23.5017 43.2263 24.6618 43.7833 25.5359C44.3406 26.41 45.5005 26.6673 46.3746 26.11C49.2514 24.2767 52.5797 23.3078 55.9998 23.3078C65.9057 23.3078 73.9648 31.3669 73.9648 41.2728V50.5539C73.6933 50.5301 73.419 50.5156 73.1415 50.5156H70.2111V41.2728C70.2111 37.4763 68.7327 33.9069 66.0471 31.2212C63.3614 28.5386 59.7932 27.0612 55.9998 27.0612C48.1636 27.0612 41.7884 33.4364 41.7884 41.2726V50.5153H38.858C38.5805 50.5153 38.3062 50.5298 38.0347 50.5536V41.2728C38.035 37.8895 38.9849 34.5915 40.7817 31.7355ZM45.5423 41.2728C45.5423 35.5064 50.2336 30.8151 56 30.8151C58.7917 30.8151 61.4178 31.9027 63.394 33.8763C65.3697 35.8523 66.4577 38.4791 66.4577 41.2728V50.5156H45.5423V41.2728ZM38.8583 54.2692H73.1417C76.2465 54.2692 78.7722 56.795 78.7722 59.8997V81.671C78.7722 84.7758 76.2465 87.3015 73.1417 87.3015H38.8583C35.7535 87.3015 33.2278 84.7758 33.2278 81.671V59.8997C33.2278 56.795 35.7537 54.2692 38.8583 54.2692Z" fill="#74788D"/>
</svg>
