<svg width="84" height="84" viewBox="0 0 84 84" fill="none" xmlns="http://www.w3.org/2000/svg">
<g clip-path="url(#clip0)">
<path d="M33.3529 44.8702C34.0325 44.8702 34.5834 44.3192 34.5834 43.6397V9.87761C34.5834 5.7881 37.9105 2.461 42.0002 2.461C46.0895 2.461 49.4168 5.7881 49.4168 9.87761V14.8324C49.4168 15.512 49.9676 16.0629 50.6473 16.0629C51.327 16.0629 51.8778 15.512 51.8778 14.8324V9.87761C51.8778 4.4311 47.4467 0 42.0002 0C36.5537 0 32.1224 4.4311 32.1224 9.87761V43.6397C32.1224 44.3192 32.6733 44.8702 33.3529 44.8702Z" fill="#656973"/>
<path d="M53.0753 52.4609C52.314 51.8506 51.8776 50.9576 51.8776 50.0109V19.7539C51.8776 19.0744 51.3268 18.5234 50.6471 18.5234C49.9674 18.5234 49.4166 19.0744 49.4166 19.7539V50.0109C49.4166 51.7082 50.189 53.3009 51.5355 54.3806C55.1691 57.2949 57.2531 61.634 57.2531 66.2854C57.2531 70.3999 55.6395 74.2569 52.7098 77.1463C49.7805 80.035 45.8974 81.5904 41.7823 81.5371C33.5685 81.4227 26.8239 74.6458 26.7474 66.4305C26.7036 61.7164 28.7913 57.3212 32.4751 54.3721C33.8147 53.2994 34.5832 51.7101 34.5832 50.0115V48.561C34.5832 47.8815 34.0323 47.3305 33.3527 47.3305C32.6732 47.3305 32.1222 47.8815 32.1222 48.561V50.0115C32.1222 50.9587 31.6902 51.8478 30.937 52.4509C26.6596 55.8751 24.2356 60.9789 24.2864 66.4535C24.3294 71.0854 26.1666 75.4584 29.4593 78.767C32.7521 82.0755 37.1162 83.9334 41.7478 83.9977C41.8328 83.999 41.9173 83.9995 42.0021 83.9995C46.6885 83.9995 51.0963 82.1938 54.4377 78.8985C57.8401 75.5431 59.7139 71.0637 59.7139 66.2854C59.7141 60.8837 57.2944 55.8448 53.0753 52.4609Z" fill="#656973"/>
<path d="M45.2083 6.54482C44.2936 5.66411 43.0907 5.20521 41.8225 5.25345C39.3272 5.34779 37.3725 7.41552 37.3725 9.96101V52.7608C37.3725 53.8456 36.8214 54.8335 35.8984 55.4033L35.4647 55.671C31.7117 57.9882 29.4957 62.0009 29.5367 66.4049C29.5989 73.1177 35.1097 78.6549 41.8212 78.7485C41.8814 78.7494 42.0005 78.7498 42.0006 78.7498C45.5666 78.7498 48.8527 77.2891 51.2537 74.6368C53.1695 72.5205 54.3037 69.7847 54.4477 66.9335C54.6774 62.3799 52.412 58.0643 48.5356 55.671L48.1016 55.4031C47.1786 54.8333 46.6276 53.8455 46.6276 52.7607V9.8775C46.6276 8.60976 46.1235 7.42618 45.2083 6.54482ZM41.9155 7.71264C41.9437 7.71166 41.9719 7.711 42 7.711C42.5629 7.711 43.0932 7.92461 43.5014 8.31755C43.9302 8.73067 44.1667 9.28472 44.1667 9.8775V15.1503H39.8337V9.96084C39.8335 8.76447 40.7675 7.75595 41.9155 7.71264ZM46.8086 57.4973L47.2426 57.7652C50.4025 59.7161 52.177 63.0972 51.99 66.8095C51.8745 69.0953 50.9651 71.2885 49.4292 72.9853C47.501 75.1157 44.8628 76.2889 42.0044 76.2889C42.001 76.2889 41.905 76.2888 41.8569 76.2879C41.8566 76.2879 41.8561 76.2879 41.8558 76.2879C36.47 76.213 32.0477 71.7694 31.9979 66.3824C31.9649 62.8473 33.7443 59.6259 36.7581 57.7654L37.1917 57.4976C38.8461 56.4761 39.8338 54.7055 39.8338 52.761V17.6114H44.1668V20.3331H43.2308C42.5511 20.3331 42.0003 20.8841 42.0003 21.5636C42.0003 22.2432 42.5511 22.7941 43.2308 22.7941H44.1668V26.238H43.2308C42.5511 26.238 42.0003 26.789 42.0003 27.4685C42.0003 28.1481 42.5511 28.699 43.2308 28.699H44.1668V32.1429H43.2308C42.5511 32.1429 42.0003 32.6939 42.0003 33.3734C42.0003 34.053 42.5511 34.6039 43.2308 34.6039H44.1668V38.0479H43.2308C42.5511 38.0479 42.0003 38.5988 42.0003 39.2784C42.0003 39.9579 42.5511 40.5089 43.2308 40.5089H44.1668V43.9528H43.2308C42.5511 43.9528 42.0003 44.5037 42.0003 45.1833C42.0003 45.8628 42.5511 46.4138 43.2308 46.4138H44.1668V52.761C44.1666 54.7052 45.1543 56.4758 46.8086 57.4973Z" fill="#656973"/>
</g>
<defs>
<clipPath id="clip0">
<rect width="84" height="84" fill="white"/>
</clipPath>
</defs>
</svg>
