<svg width="23" height="23" viewBox="0 0 23 23" fill="none" xmlns="http://www.w3.org/2000/svg">
<path d="M7.49293 20.1348C15.6301 20.1348 20.08 13.3934 20.08 7.54771C20.08 7.35624 20.0761 7.16557 20.0675 6.97595C20.9312 6.35144 21.6819 5.57212 22.2743 4.68507C21.4816 5.03754 20.6285 5.2745 19.7338 5.38171C20.6471 4.83381 21.3483 3.96746 21.679 2.9347C20.8243 3.44145 19.8776 3.80962 18.8699 4.00847C18.0626 3.14858 16.9132 2.61084 15.6406 2.61084C13.1976 2.61084 11.2164 4.59197 11.2164 7.0341C11.2164 7.38143 11.2553 7.719 11.3311 8.04286C7.65433 7.85786 4.39385 6.0976 2.21215 3.42075C1.83239 4.0744 1.61323 4.83394 1.61323 5.64438C1.61323 7.17902 2.39426 8.53419 3.58183 9.32669C2.85605 9.30441 2.17431 9.10516 1.57828 8.77352C1.57762 8.79212 1.57762 8.81018 1.57762 8.82996C1.57762 10.9725 3.1025 12.7614 5.12702 13.1667C4.75516 13.2679 4.36392 13.3223 3.96041 13.3223C3.67585 13.3223 3.39841 13.2944 3.12888 13.2425C3.69207 15.0003 5.32534 16.2794 7.26164 16.3152C5.74744 17.502 3.84002 18.2089 1.76698 18.2089C1.41042 18.2089 1.05795 18.1885 0.71167 18.1476C2.66959 19.4026 4.99449 20.135 7.49306 20.135" fill="#656973"/>
</svg>
