<svg width="23" height="23" viewBox="0 0 23 23" fill="none" xmlns="http://www.w3.org/2000/svg">
<path d="M21.8257 6.11052C21.5772 5.18677 20.8489 4.45858 19.9253 4.20985C18.238 3.74817 11.4885 3.74817 11.4885 3.74817C11.4885 3.74817 4.7393 3.74817 3.05197 4.19234C2.14612 4.44082 1.40004 5.1869 1.15156 6.11052C0.70752 7.79772 0.70752 11.2968 0.70752 11.2968C0.70752 11.2968 0.70752 14.8134 1.15156 16.483C1.4003 17.4066 2.12835 18.1348 3.0521 18.3835C4.75707 18.8453 11.4888 18.8453 11.4888 18.8453C11.4888 18.8453 18.238 18.8453 19.9253 18.4012C20.8491 18.1526 21.5772 17.4244 21.826 16.5008C22.2699 14.8134 22.2699 11.3145 22.2699 11.3145C22.2699 11.3145 22.2877 7.79772 21.8257 6.11052ZM9.33963 14.5293V8.06422L14.9521 11.2968L9.33963 14.5293Z" fill="#656973"/>
</svg>
