<svg width="33" height="45" viewBox="0 0 33 45" fill="none" xmlns="http://www.w3.org/2000/svg">
<path d="M15.8208 45C24.7671 45 31.831 37.7465 31.831 28.8002C31.831 19.8539 24.4834 12.6004 15.5371 12.6004C15.4476 12.6004 15.3126 12.6125 15.2231 12.614C18.7604 9.79725 23.2032 8.0999 28.0662 8.0999C30.3035 8.0999 32.104 6.28576 32.104 4.04995C32.104 1.81413 30.6645 -7.62939e-06 28.4272 -7.62939e-06C12.5474 0.00151062 0.000148773 12.9204 0.000148773 28.8002C0.000148773 28.8032 0.000148773 28.8062 0.000148773 28.8108C0.000148773 37.7526 6.87749 45 15.8208 45Z" fill="#656973"/>
</svg>
